<?xml version="1.0" standalone="no"?>
<!DOCTYPE svg PUBLIC "-//W3C//DTD SVG 1.1//EN" "http://www.w3.org/Graphics/SVG/1.1/DTD/svg11.dtd" >
<svg xmlns="http://www.w3.org/2000/svg">
<metadata>Generated by IcoMoon</metadata>
<defs>
<font id="icomoon" horiz-adv-x="1024">
<font-face units-per-em="1024" ascent="960" descent="-64" />
<missing-glyph horiz-adv-x="1024" />
<glyph unicode="&#x20;" horiz-adv-x="512" d="" />
<glyph unicode="&#xe900;" d="M512 826.88c-209.25 0-378.88-169.63-378.88-378.88s169.63-378.88 378.88-378.88v0c209.25 0 378.88 169.63 378.88 378.88s-169.63 378.88-378.88 378.88v0z" />
<glyph unicode="&#xe901;" d="M133.12 683.52c-11.311 0-20.48-9.169-20.48-20.48s9.169-20.48 20.48-20.48v0c11.311 0 20.48 9.169 20.48 20.48s-9.169 20.48-20.48 20.48v0z" />
<glyph unicode="&#xe902;" d="M788.48 837.12c-5.655 0-10.24-4.585-10.24-10.24s4.585-10.24 10.24-10.24v0c5.655 0 10.24 4.585 10.24 10.24s-4.585 10.24-10.24 10.24v0zM849.92 847.36c-22.622 0-40.96-18.338-40.96-40.96s18.338-40.96 40.96-40.96v0c22.622 0 40.96 18.338 40.96 40.96s-18.338 40.96-40.96 40.96v0z" />
<glyph unicode="&#xe903;" d="M890.88 734.72c-11.311 0-20.48-9.169-20.48-20.48s9.169-20.48 20.48-20.48v0c11.311 0 20.48 9.169 20.48 20.48s-9.169 20.48-20.48 20.48v0z" />
<glyph unicode="&#xe904;" d="M829.44 202.24c-11.311 0-20.48-9.169-20.48-20.48s9.169-20.48 20.48-20.48v0c11.311 0 20.48 9.169 20.48 20.48s-9.169 20.48-20.48 20.48v0zM153.6 355.84c-22.622 0-40.96-18.338-40.96-40.96s18.338-40.96 40.96-40.96v0c22.622 0 40.96 18.338 40.96 40.96s-18.338 40.96-40.96 40.96v0z" />
<glyph unicode="&#xe905;" d="M256 89.6c-11.311 0-20.48-9.169-20.48-20.48s9.169-20.48 20.48-20.48v0c11.311 0 20.48 9.169 20.48 20.48s-9.169 20.48-20.48 20.48v0z" />
<glyph unicode="&#xe906;" d="M189.44 437.76c-14.138 0-25.6-11.462-25.6-25.6s11.462-25.6 25.6-25.6v0c14.138 0 25.6 11.462 25.6 25.6s-11.462 25.6-25.6 25.6v0z" />
<glyph unicode="&#xe907;" d="M215.040 284.16c-5.655 0-10.24-4.585-10.24-10.24s4.585-10.24 10.24-10.24v0c5.655 0 10.24 4.585 10.24 10.24s-4.585 10.24-10.24 10.24v0z" />
<glyph unicode="&#xe908;" d="M819.2 622.080c-5.655 0-10.24-4.585-10.24-10.24s4.585-10.24 10.24-10.24v0c5.655 0 10.24 4.585 10.24 10.24s-4.585 10.24-10.24 10.24v0z" />
<glyph unicode="&#xe909;" d="M512 693.33c-135.492 0-245.33-109.838-245.33-245.33s109.838-245.33 245.33-245.33v0c135.492 0 245.33 109.838 245.33 245.33s-109.838 245.33-245.33 245.33v0z" />
<glyph unicode="&#xe90a;" d="M512 689.664c133.253 0 241.664-108.411 241.664-241.664s-108.411-241.664-241.664-241.664-241.664 108.411-241.664 241.664 108.411 241.664 241.664 241.664zM512 704c-141.384 0-256-114.616-256-256s114.616-256 256-256 256 114.616 256 256-114.616 256-256 256v0z" />
<glyph unicode="&#xe90b;" d="M512 647.68c-110.28 0-199.68-89.4-199.68-199.68s89.4-199.68 199.68-199.68v0c110.28 0 199.68 89.4 199.68 199.68s-89.4 199.68-199.68 199.68v0z" />
<glyph unicode="&#xe90c;" d="M714.363 479.191c-0.44 2.796-3.052 4.71-5.847 4.28s-4.721-3.041-4.27-5.847c9.533-61.194-10.793-123.72-54.364-167.26-75.95-75.899-199.526-75.899-275.476 0-75.95 75.889-75.95 199.383 0 275.282 75.95 75.889 199.526 75.889 275.476 0 7.967-7.967 15.288-16.814 22.385-27.044 1.618-2.324 4.803-2.908 7.137-1.29 2.304 1.587 2.898 4.792 1.29 7.127-7.455 10.742-15.165 20.050-23.572 28.447-79.944 79.882-210.022 79.892-289.976 0-79.944-79.892-79.944-209.879 0-289.772 79.944-79.882 210.022-79.892 289.976 0 45.885 45.844 67.287 111.667 57.242 176.077z" />
<glyph unicode="&#xe90d;" d="M691.907 521.769c1.075-2.621 4.076-3.871 6.687-2.796 2.601 1.065 3.871 4.055 2.785 6.676-3.226 7.844-6.236 14.285-9.482 20.244-1.352 2.488-4.465 3.4-6.953 2.048-0.44-0.236-0.84-0.543-1.178-0.881-1.567-1.567-1.987-4.024-0.881-6.072 3.082-5.622 5.949-11.735 9.021-19.22z" />
<glyph unicode="&#xe90e;" d="M419.84 464.64c-4.444 0-8.622-1.731-11.766-4.874s-4.874-7.322-4.874-11.766 1.731-8.622 4.874-11.766l71.68-71.68c3.144-3.144 7.322-4.874 11.766-4.874v-3.84l0.317 3.84c4.557 0.092 8.899 2.058 11.95 5.386l112.64 122.88c3 3.277 4.547 7.526 4.362 11.971-0.195 4.444-2.109 8.53-5.376 11.54-3.287 3-7.455 4.608-11.971 4.362-4.434-0.195-8.53-2.099-11.53-5.376l-100.905-110.070-59.392 59.392c-3.154 3.144-7.332 4.874-11.776 4.874z" />
<glyph unicode="&#xe90f;" d="M604.16 512v0c3.205 0 6.277-1.198 8.653-3.369 2.519-2.314 3.983-5.458 4.137-8.878 0.143-3.42-1.044-6.687-3.359-9.206l-112.64-122.88c-2.345-2.56-5.683-4.076-9.431-4.147-3.42 0-6.636 1.331-9.052 3.748l-71.68 71.68c-2.417 2.417-3.748 5.632-3.748 9.052s1.331 6.636 3.758 9.052c2.406 2.417 5.622 3.748 9.042 3.748s6.636-1.331 9.052-3.748l62.228-62.228 103.608 113.029c2.447 2.673 5.796 4.147 9.431 4.147zM604.16 519.68c-5.54 0-11.059-2.232-15.094-6.646l-98.191-107.11-56.556 56.556c-3.994 4.004-9.236 6.001-14.479 6.001s-10.486-1.997-14.479-6.001c-7.997-7.997-7.997-20.961 0-28.959l71.68-71.68c3.84-3.85 9.052-6.001 14.479-6.001 0.154 0 0.297 0 0.44 0 5.581 0.123 10.875 2.519 14.653 6.636l112.64 122.88c7.649 8.335 7.076 21.299-1.26 28.938-3.932 3.604-8.888 5.386-13.834 5.386v0z" />
<glyph unicode="&#xe910;" d="M788.48 837.12c-5.655 0-10.24-4.585-10.24-10.24s4.585-10.24 10.24-10.24v0c5.655 0 10.24 4.585 10.24 10.24s-4.585 10.24-10.24 10.24v0z" />
<glyph unicode="&#xe911;" d="M512 826.88c-209.25 0-378.88-169.63-378.88-378.88s169.63-378.88 378.88-378.88v0c209.25 0 378.88 169.63 378.88 378.88s-169.63 378.88-378.88 378.88v0z" />
<glyph unicode="&#xe912;" d="M849.92 847.36c-22.622 0-40.96-18.338-40.96-40.96s18.338-40.96 40.96-40.96v0c22.622 0 40.96 18.338 40.96 40.96s-18.338 40.96-40.96 40.96v0z" />
<glyph unicode="&#xe913;" d="M890.88 734.72c-11.311 0-20.48-9.169-20.48-20.48s9.169-20.48 20.48-20.48v0c11.311 0 20.48 9.169 20.48 20.48s-9.169 20.48-20.48 20.48v0z" />
<glyph unicode="&#xe914;" d="M829.44 202.24c-11.311 0-20.48-9.169-20.48-20.48s9.169-20.48 20.48-20.48v0c11.311 0 20.48 9.169 20.48 20.48s-9.169 20.48-20.48 20.48v0zM153.6 355.84c-22.622 0-40.96-18.338-40.96-40.96s18.338-40.96 40.96-40.96v0c22.622 0 40.96 18.338 40.96 40.96s-18.338 40.96-40.96 40.96v0z" />
<glyph unicode="&#xe915;" d="M256 89.6c-11.311 0-20.48-9.169-20.48-20.48s9.169-20.48 20.48-20.48v0c11.311 0 20.48 9.169 20.48 20.48s-9.169 20.48-20.48 20.48v0z" />
<glyph unicode="&#xe916;" d="M189.44 458.24c-14.138 0-25.6-11.462-25.6-25.6s11.462-25.6 25.6-25.6v0c14.138 0 25.6 11.462 25.6 25.6s-11.462 25.6-25.6 25.6v0zM814.080 632.32c-8.483 0-15.36-6.877-15.36-15.36s6.877-15.36 15.36-15.36v0c8.483 0 15.36 6.877 15.36 15.36s-6.877 15.36-15.36 15.36v0z" />
<glyph unicode="&#xe917;" d="M256 503.296v-229.376h276.48v-10.24h235.52v239.616z" />
<glyph unicode="&#xe918;" d="M311.040 273.92c0 0 0 96.727 0 122.88s21.207 47.36 47.36 47.36 47.36-21.207 47.36-47.36c0-13.967 0-122.88 0-122.88h-94.72z" />
<glyph unicode="&#xe919;" d="M256 503.296v-14.336h276.48v-10.24h235.52v24.576z" />
<glyph unicode="&#xe91a;" d="M751.135 643.584h-468.654l-47.145-135.168h553.503z" />
<glyph unicode="&#xe91b;" d="M260.096 509.44h-14.336v-240.64c0-2.826 2.294-5.12 5.12-5.12h281.6v14.336h-272.384v231.424z" />
<glyph unicode="&#xe91c;" d="M763.904 509.44v-241.664h-227.328v241.664h-14.336v-250.88c0-2.826 2.294-5.12 5.12-5.12h245.76c2.826 0 5.12 2.294 5.12 5.12v250.88h-14.336z" />
<glyph unicode="&#xe91d;" d="M747.244 638.464l34.857-124.928h-539.556l43.571 124.928h461.128zM752.62 652.8h-471.521c-3.082 0-5.827-1.935-6.84-4.823l-48.579-139.264c-1.618-4.659 1.864-9.513 6.84-9.513h558.961c4.782 0 8.243 4.516 6.973 9.083l-38.861 139.264c-0.87 3.103-3.717 5.253-6.973 5.253v0z" />
<glyph unicode="&#xe91e;" d="M651.52 611.84h-350.72c-2.12 0-3.84 1.72-3.84 3.84s1.72 3.84 3.84 3.84h350.72c2.12 0 3.84-1.72 3.84-3.84s-1.72-3.84-3.84-3.84zM641.28 591.36h-345.6c-2.12 0-3.84 1.72-3.84 3.84s1.72 3.84 3.84 3.84h345.6c2.12 0 3.84-1.72 3.84-3.84s-1.72-3.84-3.84-3.84zM631.040 570.88h-340.48c-2.12 0-3.84 1.72-3.84 3.84s1.72 3.84 3.84 3.84h340.48c2.12 0 3.84-1.72 3.84-3.84s-1.72-3.84-3.84-3.84z" />
<glyph unicode="&#xe91f;" d="M727.040 680.96c-3.574 0-47.606 0-51.2 0-4.239 0-7.68-3.441-7.68-7.68s3.441-7.68 7.68-7.68c3.594 0 47.626 0 51.2 0 4.239 0 7.68 3.441 7.68 7.68s-3.441 7.68-7.68 7.68z" />
<glyph unicode="&#xe920;" d="M727.040 663.040h-51.2c-5.642 0-10.24 4.598-10.24 10.24s4.598 10.24 10.24 10.24h51.2c5.642 0 10.24-4.598 10.24-10.24s-4.598-10.24-10.24-10.24zM675.84 678.4c-2.826 0-5.12-2.294-5.12-5.12s2.294-5.12 5.12-5.12h51.2c2.826 0 5.12 2.294 5.12 5.12s-2.294 5.12-5.12 5.12h-51.2z" />
<glyph unicode="&#xe921;" d="M724.48 573.44h-46.080v92.16h47.36z" />
<glyph unicode="&#xe922;" d="M724.48 570.88h-46.080c-1.413 0-2.56 1.147-2.56 2.56v92.16c0 1.413 1.147 2.56 2.56 2.56h47.36c0.686 0 1.341-0.276 1.823-0.758 0.481-0.492 0.748-1.147 0.737-1.833l-1.28-92.16c-0.020-1.403-1.157-2.529-2.56-2.529zM680.96 576h40.991l1.208 87.040h-42.199v-87.040zM766.72 473.6h-180.48c-1.413 0-2.56 1.147-2.56 2.56s1.147 2.56 2.56 2.56h180.48c1.413 0 2.56-1.147 2.56-2.56s-1.147-2.56-2.56-2.56zM570.88 473.6h-15.36c-1.413 0-2.56 1.147-2.56 2.56s1.147 2.56 2.56 2.56h15.36c1.413 0 2.56-1.147 2.56-2.56s-1.147-2.56-2.56-2.56zM448 483.84h-190.72c-1.413 0-2.56 1.147-2.56 2.56s1.147 2.56 2.56 2.56h190.72c1.413 0 2.56-1.147 2.56-2.56s-1.147-2.56-2.56-2.56zM488.96 483.84h-15.36c-1.413 0-2.56 1.147-2.56 2.56s1.147 2.56 2.56 2.56h15.36c1.413 0 2.56-1.147 2.56-2.56s-1.147-2.56-2.56-2.56z" />
<glyph unicode="&#xe923;" d="M702.72 403.2v-84.48h-104.96v115.2h84.48z" />
<glyph unicode="&#xe924;" d="M702.72 314.88h-104.96c-2.12 0-3.84 1.72-3.84 3.84v115.2c0 2.12 1.72 3.84 3.84 3.84h84.48c2.12 0 3.84-1.72 3.84-3.84s-1.72-3.84-3.84-3.84h-80.64v-107.52h97.28v80.64c0 2.12 1.72 3.84 3.84 3.84s3.84-1.72 3.84-3.84v-84.48c0-2.12-1.72-3.84-3.84-3.84z" />
<glyph unicode="&#xe925;" d="M650.24 314.88c-2.12 0-3.84 1.72-3.84 3.84v115.2c0 2.12 1.72 3.84 3.84 3.84s3.84-1.72 3.84-3.84v-115.2c0-2.12-1.72-3.84-3.84-3.84z" />
<glyph unicode="&#xe926;" d="M497.92 380.16l0.031 53.76h-64l-0.031-74.24h53.76z" />
<glyph unicode="&#xe927;" d="M487.68 355.84h-53.76c-1.024 0-1.997 0.41-2.714 1.126s-1.126 1.7-1.126 2.714l0.031 74.24c0 2.12 1.72 3.84 3.84 3.84h64c1.024 0 1.997-0.41 2.714-1.126s1.126-1.7 1.126-2.714l-0.031-53.76c0-2.12-1.72-3.84-3.84-3.84v0c-2.13 0-3.84 1.72-3.84 3.84l0.031 49.92h-56.32l-0.031-66.56h49.92c2.12 0 3.84-1.72 3.84-3.84s-1.72-3.84-3.84-3.84z" />
<glyph unicode="&#xe928;" d="M465.951 355.973c-2.12 0-3.84 1.72-3.84 3.84v74.107c0 2.12 1.72 3.84 3.84 3.84s3.84-1.72 3.84-3.84v-74.107c0-2.12-1.72-3.84-3.84-3.84zM405.76 270.080c-2.12 0-3.84 1.72-3.84 3.84v122.88c0 23.992-19.528 43.52-43.52 43.52s-43.52-19.528-43.52-43.52v-122.88c0-2.12-1.72-3.84-3.84-3.84s-3.84 1.72-3.84 3.84v122.88c0 28.232 22.968 51.2 51.2 51.2s51.2-22.968 51.2-51.2v-122.88c0-2.12-1.72-3.84-3.84-3.84z" />
<glyph unicode="&#xe929;" d="M386.56 386.56c0-5.601 0-17.92 0-17.92h-56.32c0 0 0 2.365 0 17.92s12.605 28.16 28.16 28.16 28.16-12.605 28.16-28.16z" />
<glyph unicode="&#xe92a;" d="M386.56 366.080h-56.32c-1.413 0-2.56 1.147-2.56 2.56v17.92c0 16.937 13.783 30.72 30.72 30.72s30.72-13.783 30.72-30.72v-17.92c0-1.413-1.147-2.56-2.56-2.56zM332.8 371.2h51.2v15.36c0 14.111-11.489 25.6-25.6 25.6s-25.6-11.489-25.6-25.6v-15.36zM386.56 335.36h-5.12c-1.413 0-2.56 1.147-2.56 2.56s1.147 2.56 2.56 2.56h5.12c1.413 0 2.56-1.147 2.56-2.56s-1.147-2.56-2.56-2.56z" />
<glyph unicode="&#xe92b;" d="M133.12 683.52c-11.311 0-20.48-9.169-20.48-20.48s9.169-20.48 20.48-20.48v0c11.311 0 20.48 9.169 20.48 20.48s-9.169 20.48-20.48 20.48v0z" />
<glyph unicode="&#xe92c;" d="M788.48 837.12c-5.655 0-10.24-4.585-10.24-10.24s4.585-10.24 10.24-10.24v0c5.655 0 10.24 4.585 10.24 10.24s-4.585 10.24-10.24 10.24v0z" />
<glyph unicode="&#xe92d;" d="M512 826.88c-209.25 0-378.88-169.63-378.88-378.88s169.63-378.88 378.88-378.88v0c209.25 0 378.88 169.63 378.88 378.88s-169.63 378.88-378.88 378.88v0z" />
<glyph unicode="&#xe92e;" d="M849.92 847.36c-22.622 0-40.96-18.338-40.96-40.96s18.338-40.96 40.96-40.96v0c22.622 0 40.96 18.338 40.96 40.96s-18.338 40.96-40.96 40.96v0z" />
<glyph unicode="&#xe92f;" d="M890.88 734.72c-11.311 0-20.48-9.169-20.48-20.48s9.169-20.48 20.48-20.48v0c11.311 0 20.48 9.169 20.48 20.48s-9.169 20.48-20.48 20.48v0z" />
<glyph unicode="&#xe930;" d="M829.44 202.24c-11.311 0-20.48-9.169-20.48-20.48s9.169-20.48 20.48-20.48v0c11.311 0 20.48 9.169 20.48 20.48s-9.169 20.48-20.48 20.48v0zM153.6 355.84c-22.622 0-40.96-18.338-40.96-40.96s18.338-40.96 40.96-40.96v0c22.622 0 40.96 18.338 40.96 40.96s-18.338 40.96-40.96 40.96v0z" />
<glyph unicode="&#xe931;" d="M256 89.6c-11.311 0-20.48-9.169-20.48-20.48s9.169-20.48 20.48-20.48v0c11.311 0 20.48 9.169 20.48 20.48s-9.169 20.48-20.48 20.48v0z" />
<glyph unicode="&#xe932;" d="M189.44 437.76c-14.138 0-25.6-11.462-25.6-25.6s11.462-25.6 25.6-25.6v0c14.138 0 25.6 11.462 25.6 25.6s-11.462 25.6-25.6 25.6v0z" />
<glyph unicode="&#xe933;" d="M215.040 284.16c-5.655 0-10.24-4.585-10.24-10.24s4.585-10.24 10.24-10.24v0c5.655 0 10.24 4.585 10.24 10.24s-4.585 10.24-10.24 10.24v0z" />
<glyph unicode="&#xe934;" d="M819.2 622.080c-5.655 0-10.24-4.585-10.24-10.24s4.585-10.24 10.24-10.24v0c5.655 0 10.24 4.585 10.24 10.24s-4.585 10.24-10.24 10.24v0z" />
<glyph unicode="&#xe935;" d="M595.292 634.993c-76.551 0-138.609-62.057-138.609-138.609s62.057-138.609 138.609-138.609v0c76.551 0 138.609 62.057 138.609 138.609s-62.057 138.609-138.609 138.609v0z" />
<glyph unicode="&#xe936;" d="M731.095 463.329c-0.338 0-0.686 0.031-1.034 0.102-2.775 0.573-4.557 3.277-3.983 6.052 1.802 8.765 2.714 17.818 2.714 26.9 0 73.605-59.884 133.489-133.489 133.489-41.185 0-79.442-18.575-104.94-50.985-1.741-2.212-4.966-2.601-7.188-0.85s-2.601 4.956-0.86 7.188c27.464 34.877 68.639 54.886 112.988 54.886 79.247 0 143.729-64.481 143.729-143.729 0-9.769-0.983-19.507-2.918-28.959-0.512-2.427-2.642-4.096-5.018-4.096z" />
<glyph unicode="&#xe937;" d="M631.204 584.96c11.52-4.864 21.893-11.909 30.607-20.613z" />
<glyph unicode="&#xe938;" d="M661.811 559.227c-1.311 0-2.621 0.502-3.615 1.495-8.387 8.366-18.135 14.94-28.979 19.507-2.601 1.096-3.83 4.106-2.724 6.707 1.096 2.611 4.106 3.809 6.707 2.734 12.063-5.089 22.907-12.39 32.225-21.709 2.007-1.987 2.007-5.243 0.010-7.24-1.004-0.993-2.314-1.495-3.625-1.495z" />
<glyph unicode="&#xe939;" d="M518.011 555.735c17.633 22.405 45.005 36.782 75.725 36.782z" />
<glyph unicode="&#xe93a;" d="M518.011 550.615c-1.106 0-2.222 0.358-3.164 1.096-2.222 1.751-2.601 4.966-0.86 7.188 19.384 24.607 48.445 38.728 79.749 38.728 2.826 0 5.12-2.294 5.12-5.12s-2.294-5.12-5.12-5.12c-28.15 0-54.272-12.687-71.7-34.826-1.004-1.27-2.509-1.946-4.024-1.946z" />
<glyph unicode="&#xe93b;" d="M307.855 291.328c-33.956 0-61.583 29.491-61.583 65.741 0 36.26 27.628 65.751 61.583 65.751 4.424 0 8.97-0.553 13.517-1.649l8.581-2.068 0.266 8.827c1.976 66.273 52.275 118.18 114.534 118.18 43.756 0 83.098-25.999 102.656-67.86l4.844-10.342 7.209 8.847c15.585 19.128 38.083 30.095 61.737 30.095 42.24 0 78.029-35.133 81.49-79.995l0.666-8.745 8.438 2.386c5.366 1.526 10.721 2.304 15.903 2.304 16.374 0 31.785-6.779 43.397-19.098 11.725-12.442 18.176-29 18.176-46.653 0-36.25-27.628-65.741-61.594-65.741h-419.82z" />
<glyph unicode="&#xe93c;" d="M444.754 538.952c40.94 0 77.793-24.422 96.164-63.734l9.677-20.695 14.428 17.705c14.213 17.449 34.693 27.464 56.177 27.464 38.513 0 71.168-32.225 74.342-73.38l1.352-17.49 16.876 4.803c4.71 1.341 9.4 2.017 13.937 2.017 14.377 0 27.945-5.98 38.185-16.855 10.465-11.1 16.23-25.917 16.22-41.728 0-32.297-24.412-58.573-54.426-58.573h-419.82c-30.003 0-54.426 26.276-54.426 58.573s24.412 58.573 54.426 58.573c3.86 0 7.844-0.492 11.848-1.454l17.152-4.127 0.522 17.633c1.864 62.403 49.019 111.268 107.366 111.268zM444.754 553.288c-66.007 0-119.624-55.685-121.692-125.143-4.905 1.178-9.974 1.843-15.196 1.843-37.98 0-68.762-32.645-68.762-72.909 0-40.274 30.781-72.909 68.762-72.909 4.413 0 415.406 0 419.83 0 37.98 0 68.762 32.645 68.762 72.909 0.010 40.274-30.771 72.909-68.741 72.909-6.195 0-12.155-0.942-17.869-2.57-3.738 48.476-41.943 86.61-88.637 86.61-26.911 0-50.975-12.718-67.297-32.737-19.927 42.629-61.256 71.997-109.158 71.997v0z" />
<glyph unicode="&#xe93d;" d="M619.52 325.12h-30.72c-2.826 0-5.12 2.294-5.12 5.12s2.294 5.12 5.12 5.12h30.72c2.826 0 5.12-2.294 5.12-5.12s-2.294-5.12-5.12-5.12z" />
<glyph unicode="&#xe93e;" d="M547.84 325.12h-235.52c-2.826 0-5.12 2.294-5.12 5.12s2.294 5.12 5.12 5.12h235.52c2.826 0 5.12-2.294 5.12-5.12s-2.294-5.12-5.12-5.12z" />
<glyph unicode="&#xe93f;" d="M691.2 325.12h-40.96c-2.826 0-5.12 2.294-5.12 5.12s2.294 5.12 5.12 5.12h40.96c2.826 0 5.12-2.294 5.12-5.12s-2.294-5.12-5.12-5.12z" />
<glyph unicode="&#xe940;" d="M599.040 663.040c-2.826 0-5.12 2.294-5.12 5.12v61.44c0 2.826 2.294 5.12 5.12 5.12s5.12-2.294 5.12-5.12v-61.44c0-2.826-2.294-5.12-5.12-5.12z" />
<glyph unicode="&#xe941;" d="M834.56 468.48h-61.44c-2.826 0-5.12 2.294-5.12 5.12s2.294 5.12 5.12 5.12h61.44c2.826 0 5.12-2.294 5.12-5.12s-2.294-5.12-5.12-5.12z" />
<glyph unicode="&#xe942;" d="M717.752 604.826c-1.311 0-2.621 0.502-3.625 1.495-1.997 1.997-1.997 5.243 0 7.24l43.868 43.868c1.997 1.997 5.243 1.997 7.24 0s1.997-5.243 0-7.24l-43.868-43.868c-0.993-0.993-2.304-1.495-3.615-1.495z" />
<glyph unicode="&#xe943;" d="M488.673 617.236c-1.311 0-2.621 0.502-3.625 1.495l-43.868 43.858c-1.997 1.997-1.997 5.243 0 7.24s5.243 1.997 7.24 0l43.868-43.858c1.997-1.997 1.997-5.243 0-7.24-0.993-0.993-2.304-1.495-3.615-1.495z" />
<glyph unicode="&#xe944;" d="M798.72 826.88c-5.655 0-10.24-4.585-10.24-10.24s4.585-10.24 10.24-10.24v0c5.655 0 10.24 4.585 10.24 10.24s-4.585 10.24-10.24 10.24v0z" />
<glyph unicode="&#xe945;" d="M512 837.12c-214.905 0-389.12-174.215-389.12-389.12s174.215-389.12 389.12-389.12v0c214.905 0 389.12 174.215 389.12 389.12s-174.215 389.12-389.12 389.12v0z" />
<glyph unicode="&#xe946;" d="M860.16 837.12c-22.622 0-40.96-18.338-40.96-40.96s18.338-40.96 40.96-40.96v0c22.622 0 40.96 18.338 40.96 40.96s-18.338 40.96-40.96 40.96v0z" />
<glyph unicode="&#xe947;" d="M143.36 714.24c-11.311 0-20.48-9.169-20.48-20.48s9.169-20.48 20.48-20.48v0c11.311 0 20.48 9.169 20.48 20.48s-9.169 20.48-20.48 20.48v0z" />
<glyph unicode="&#xe948;" d="M798.72 192c-11.311 0-20.48-9.169-20.48-20.48s9.169-20.48 20.48-20.48v0c11.311 0 20.48 9.169 20.48 20.48s-9.169 20.48-20.48 20.48v0zM174.080 202.24c-22.622 0-40.96-18.338-40.96-40.96s18.338-40.96 40.96-40.96v0c22.622 0 40.96 18.338 40.96 40.96s-18.338 40.96-40.96 40.96v0z" />
<glyph unicode="&#xe949;" d="M245.76 130.56c-11.311 0-20.48-9.169-20.48-20.48s9.169-20.48 20.48-20.48v0c11.311 0 20.48 9.169 20.48 20.48s-9.169 20.48-20.48 20.48v0z" />
<glyph unicode="&#xe94a;" d="M680.96 181.76c-14.138 0-25.6-11.462-25.6-25.6s11.462-25.6 25.6-25.6v0c14.138 0 25.6 11.462 25.6 25.6s-11.462 25.6-25.6 25.6v0zM163.84 478.72c-5.655 0-10.24-4.585-10.24-10.24s4.585-10.24 10.24-10.24v0c5.655 0 10.24 4.585 10.24 10.24s-4.585 10.24-10.24 10.24v0z" />
<glyph unicode="&#xe94b;" d="M880.64 652.8c-5.655 0-10.24-4.585-10.24-10.24s4.585-10.24 10.24-10.24v0c5.655 0 10.24 4.585 10.24 10.24s-4.585 10.24-10.24 10.24v0z" />
<glyph unicode="&#xe94c;" d="M819.2 304.64c-11.311 0-20.48-9.169-20.48-20.48s9.169-20.48 20.48-20.48v0c11.311 0 20.48 9.169 20.48 20.48s-9.169 20.48-20.48 20.48v0z" />
<glyph unicode="&#xe94d;" d="M273.408 655.872h477.184v-77.824h-477.184z" />
<glyph unicode="&#xe94e;" d="M743.424 648.704v-63.488h-462.848v63.488h462.848zM757.76 663.040h-491.52v-92.16h491.52v92.16z" />
<glyph unicode="&#xe94f;" d="M273.408 492.032h477.184v-77.824h-477.184z" />
<glyph unicode="&#xe950;" d="M743.424 484.864v-63.488h-462.848v63.488h462.848zM757.76 499.2h-491.52v-92.16h491.52v92.16z" />
<glyph unicode="&#xe951;" d="M273.408 328.192h477.184v-77.824h-477.184z" />
<glyph unicode="&#xe952;" d="M743.424 321.024v-63.488h-462.848v63.488h462.848zM757.76 335.36h-491.52v-92.16h491.52v92.16zM609.28 437.76h-307.2c-3.072 0-5.12 2.048-5.12 5.12s2.048 5.12 5.12 5.12h307.2c3.072 0 5.12-2.048 5.12-5.12s-2.048-5.12-5.12-5.12zM722.944 437.76h-9.216c-3.072 0-5.12 2.048-5.12 5.12s2.048 5.12 5.12 5.12h9.216c3.072 0 5.12-2.048 5.12-5.12s-2.048-5.12-5.12-5.12z" />
<glyph unicode="&#xe953;" d="M742.4 273.92h-399.36c-3.072 0-5.12 2.048-5.12 5.12s2.048 5.12 5.12 5.12h399.36c3.072 0 5.12-2.048 5.12-5.12s-2.048-5.12-5.12-5.12zM311.296 273.92h-9.216c-3.072 0-5.12 2.048-5.12 5.12s2.048 5.12 5.12 5.12h9.216c3.072 0 5.12-2.048 5.12-5.12s-2.048-5.12-5.12-5.12z" />
<glyph unicode="&#xe954;" d="M680.96 601.6h-399.36c-3.072 0-5.12 2.048-5.12 5.12s2.048 5.12 5.12 5.12h399.36c3.072 0 5.12-2.048 5.12-5.12s-2.048-5.12-5.12-5.12z" />
<glyph unicode="&#xe955;" d="M721.92 601.6h-9.216c-3.072 0-5.12 2.048-5.12 5.12s2.048 5.12 5.12 5.12h9.216c3.072 0 5.12-2.048 5.12-5.12s-2.048-5.12-5.12-5.12z" />
<glyph unicode="&#xe956;" d="M685.056 437.76h-34.816c-3.072 0-5.12 2.048-5.12 5.12s2.048 5.12 5.12 5.12h34.816c3.072 0 5.12-2.048 5.12-5.12s-2.048-5.12-5.12-5.12z" />
<glyph unicode="&#xe957;" d="M788.48 837.12c-5.655 0-10.24-4.585-10.24-10.24s4.585-10.24 10.24-10.24v0c5.655 0 10.24 4.585 10.24 10.24s-4.585 10.24-10.24 10.24v0z" />
<glyph unicode="&#xe958;" d="M512 826.88c-209.25 0-378.88-169.63-378.88-378.88s169.63-378.88 378.88-378.88v0c209.25 0 378.88 169.63 378.88 378.88s-169.63 378.88-378.88 378.88v0z" />
<glyph unicode="&#xe959;" d="M849.92 847.36c-22.622 0-40.96-18.338-40.96-40.96s18.338-40.96 40.96-40.96v0c22.622 0 40.96 18.338 40.96 40.96s-18.338 40.96-40.96 40.96v0z" />
<glyph unicode="&#xe95a;" d="M890.88 734.72c-11.311 0-20.48-9.169-20.48-20.48s9.169-20.48 20.48-20.48v0c11.311 0 20.48 9.169 20.48 20.48s-9.169 20.48-20.48 20.48v0z" />
<glyph unicode="&#xe95b;" d="M829.44 202.24c-11.311 0-20.48-9.169-20.48-20.48s9.169-20.48 20.48-20.48v0c11.311 0 20.48 9.169 20.48 20.48s-9.169 20.48-20.48 20.48v0zM153.6 355.84c-22.622 0-40.96-18.338-40.96-40.96s18.338-40.96 40.96-40.96v0c22.622 0 40.96 18.338 40.96 40.96s-18.338 40.96-40.96 40.96v0z" />
<glyph unicode="&#xe95c;" d="M256 89.6c-11.311 0-20.48-9.169-20.48-20.48s9.169-20.48 20.48-20.48v0c11.311 0 20.48 9.169 20.48 20.48s-9.169 20.48-20.48 20.48v0z" />
<glyph unicode="&#xe95d;" d="M814.080 632.32c-8.483 0-15.36-6.877-15.36-15.36s6.877-15.36 15.36-15.36v0c8.483 0 15.36 6.877 15.36 15.36s-6.877 15.36-15.36 15.36v0z" />
<glyph unicode="&#xe95e;" d="M270.868 240.128c-9.892 0-17.94 8.069-17.94 17.992v338.801c0 9.923 8.049 17.992 17.94 17.992h472.023c9.892 0 17.94-8.069 17.94-17.992v-338.811c-0.010-9.912-8.049-17.981-17.94-17.981h-472.023z" />
<glyph unicode="&#xe95f;" d="M742.892 607.744c5.939 0 10.772-4.854 10.772-10.824v-338.801c0-5.97-4.833-10.824-10.772-10.824h-472.023c-5.939 0-10.772 4.854-10.772 10.824v338.801c0 5.97 4.833 10.824 10.772 10.824h472.023zM742.892 622.080h-472.023c-13.814 0-25.108-11.325-25.108-25.16v-338.801c0-13.844 11.305-25.16 25.108-25.16h472.023c13.804 0 25.098 11.315 25.108 25.149v338.811c0 13.844-11.305 25.16-25.108 25.16v0z" />
<glyph unicode="&#xe960;" d="M475.31 247.675v360.325h52.9v-360.325h-52.9z" />
<glyph unicode="&#xe961;" d="M717.793 309.76h45.087v-36.413c0-26.307-4.157-34.621-29.153-35.267l-42.844 0.317 0.092 48.486c-0.010 11.008 15.933 22.876 26.819 22.876z" />
<glyph unicode="&#xe962;" d="M733.86 232.96l-48.108 0.358 0.102 53.576c0 14.141 18.289 27.976 31.939 27.976h50.207v-41.544c0-27.31-4.925-39.619-34.14-40.366zM696.013 243.476l37.755-0.276c20.603 0.532 23.992 4.762 23.992 30.136v31.304h-39.967c-8.253 0-21.699-9.923-21.699-17.746l-0.082-43.418z" />
<glyph unicode="&#xe963;" d="M420.628 631.491c-2.765 25.324 22.139 57.149 37.775 57.149h87.214c15.667 0 37.499-34.98 38.298-57.149h20.244c-2.652 42.301-19.087 87.869-52.726 87.869h-98.857c-25.139 0-50.565-45.64-53.217-87.869h21.268z" />
<glyph unicode="&#xe964;" d="M609.608 626.371h-30.638l-0.184 4.936c-0.768 21.514-22.129 52.214-33.178 52.214h-87.214c-4.362 0-10.793-4.147-16.783-10.844-9.021-10.056-17.439-26.522-15.903-40.643l0.625-5.673h-32.43l0.338 5.437c2.693 42.854 28.754 92.672 58.317 92.672h98.867c38.4 0 55.153-49.92 57.825-92.672l0.358-5.427zM588.585 636.611h10.045c-3.584 39.485-19.18 77.629-47.186 77.629h-98.867c-20.306 0-43.377-38.308-47.626-77.629h10.373c0.399 16.609 9.923 33.126 18.678 42.906 4.762 5.325 14.275 14.244 24.402 14.244h87.214c17.838 0 39.496-32.84 42.967-57.149zM727.040 284.16c-5.655 0-10.24-4.585-10.24-10.24s4.585-10.24 10.24-10.24v0c5.655 0 10.24 4.585 10.24 10.24s-4.585 10.24-10.24 10.24v0z" />
<glyph unicode="&#xe965;" d="M322.468 286.884l0.092-48.486-42.844-0.317c-24.996 0.645-29.153 8.96-29.153 35.267v36.413h45.087c10.885 0 26.819-11.868 26.819-22.876z" />
<glyph unicode="&#xe966;" d="M279.747 232.96c-29.379 0.748-34.314 13.056-34.314 40.376v41.544h50.207c13.65 0 31.928-13.834 31.939-27.976l0.102-53.576-47.933-0.369zM255.683 304.64v-31.304c0-25.385 3.389-29.614 24.156-30.136l37.591 0.276-0.082 43.407c0 7.834-13.445 17.746-21.699 17.746h-39.967z" />
<glyph unicode="&#xe967;" d="M286.403 284.16c-5.655 0-10.24-4.585-10.24-10.24s4.585-10.24 10.24-10.24v0c5.655 0 10.24 4.585 10.24 10.24s-4.585 10.24-10.24 10.24v0z" />
<glyph unicode="&#xe968;" d="M442.604 616.53h-64.727c-1.802 0-3.256 2.488-3.256 5.54l0.010 9.83c0 3.041 1.464 5.53 3.256 5.53h64.727c1.802 0 3.256-2.488 3.256-5.54v-9.83c-0.010-3.031-1.485-5.53-3.267-5.53z" />
<glyph unicode="&#xe969;" d="M442.604 611.41h-64.727c-4.782 0-8.376 4.588-8.376 10.67l0.010 9.841c0 6.062 3.604 10.639 8.376 10.639h64.727c4.782 0 8.376-4.577 8.376-10.66v-9.841c-0.020-6.083-3.625-10.65-8.387-10.65zM379.75 621.65h60.979c0.010 0.133 0.020 0.266 0.020 0.43v9.82c0 0.154-0.010 0.287-0.020 0.42h-60.969c-0.010-0.133-0.020-0.256-0.020-0.41l-0.010-9.841c0-0.154 0.010-0.287 0.020-0.42z" />
<glyph unicode="&#xe96a;" d="M626.924 616.53h-64.727c-1.802 0-3.256 2.488-3.256 5.54l0.010 9.83c0 3.041 1.464 5.53 3.256 5.53h64.727c1.802 0 3.256-2.488 3.256-5.54v-9.83c-0.010-3.031-1.485-5.53-3.267-5.53z" />
<glyph unicode="&#xe96b;" d="M626.924 611.41h-64.727c-4.782 0-8.376 4.588-8.376 10.67l0.010 9.841c0 6.062 3.604 10.639 8.376 10.639h64.727c4.782 0 8.376-4.577 8.376-10.66v-9.841c-0.020-6.083-3.625-10.65-8.387-10.65zM564.070 621.65h60.979c0.010 0.133 0.020 0.266 0.020 0.43v9.82c0 0.154-0.010 0.287-0.020 0.42h-60.969c-0.010-0.133-0.020-0.256-0.020-0.41l-0.010-9.841c0-0.154 0.010-0.287 0.020-0.42z" />
<glyph unicode="&#xe96c;" d="M455.68 417.28h-194.56c-2.826 0-5.12 2.294-5.12 5.12s2.294 5.12 5.12 5.12h194.56c2.826 0 5.12-2.294 5.12-5.12s-2.294-5.12-5.12-5.12z" />
<glyph unicode="&#xe96d;" d="M527.36 561.92c-1.413 0-2.56 1.147-2.56 2.56v32c0 1.413 1.147 2.56 2.56 2.56s2.56-1.147 2.56-2.56v-32c0-1.413-1.147-2.56-2.56-2.56z" />
<glyph unicode="&#xe96e;" d="M476.16 256c-1.413 0-2.56 1.147-2.56 2.56v30.72c0 1.413 1.147 2.56 2.56 2.56s2.56-1.147 2.56-2.56v-30.72c0-1.413-1.147-2.56-2.56-2.56z" />
<glyph unicode="&#xe96f;" d="M527.36 241.49c-1.413 0-2.56 1.147-2.56 2.56v301.66c0 1.413 1.147 2.56 2.56 2.56s2.56-1.147 2.56-2.56v-301.66c0-1.413-1.147-2.56-2.56-2.56z" />
<glyph unicode="&#xe970;" d="M476.16 307.2c-1.413 0-2.56 1.147-2.56 2.56v307.2c0 1.413 1.147 2.56 2.56 2.56s2.56-1.147 2.56-2.56v-307.2c0-1.413-1.147-2.56-2.56-2.56z" />
<glyph unicode="&#xe971;" d="M762.88 417.28h-194.56c-2.826 0-5.12 2.294-5.12 5.12s2.294 5.12 5.12 5.12h194.56c2.826 0 5.12-2.294 5.12-5.12s-2.294-5.12-5.12-5.12z" />
<glyph unicode="&#xe972;" d="M494.684 513.823l14.531 0.092c15.606 0.102 28.385-12.974 28.488-29.143l0.215-34.376c0.102-16.169-12.513-29.409-28.119-29.512l-14.541-0.092c-15.606-0.102-28.385 12.974-28.488 29.143l-0.215 34.376c-0.092 16.179 12.534 29.42 28.129 29.512zM510.198 435.292c7.393 0.051 13.373 6.308 13.332 13.947l-0.225 36.526c-0.051 7.639-6.103 13.814-13.507 13.773l-15.503-0.102c-7.393-0.051-13.373-6.308-13.332-13.947l0.225-36.526c0.051-7.639 6.103-13.814 13.507-13.773l15.503 0.102z" />
<glyph unicode="&#xe973;" d="M495.084 418.243c-8.182 0-15.882 3.277-21.709 9.236-5.857 5.99-9.114 13.967-9.165 22.446l-0.215 34.365c-0.113 17.592 13.65 31.98 30.669 32.092l14.531 0.092c0.072 0 0.143 0 0.205 0 8.182 0 15.882-3.277 21.709-9.236 5.857-5.99 9.114-13.967 9.165-22.446l0.215-34.365c0.113-17.592-13.65-31.98-30.659-32.092l-14.541-0.092c-0.082 0-0.143 0-0.205 0zM494.715 511.273c-14.203-0.092-25.682-12.165-25.59-26.931l0.215-34.365c0.041-7.158 2.775-13.865 7.7-18.913 4.864-4.966 11.264-7.7 18.053-7.7 0.061 0 0.113 0 0.164 0l14.541 0.092c14.203 0.092 25.672 12.165 25.58 26.931l-0.215 34.365c-0.041 7.158-2.775 13.865-7.7 18.913-4.864 4.966-11.264 7.7-18.053 7.7-0.061 0-0.113 0-0.164 0l-14.531-0.092zM494.623 432.63c-8.765 0-15.933 7.301-15.995 16.323l-0.225 36.516c-0.051 9.062 7.076 16.466 15.882 16.527l15.493 0.102c0.031 0 0.061 0 0.092 0 8.765 0 15.944-7.301 16.005-16.323l0.225-36.516c0.051-9.062-7.066-16.466-15.872-16.527l-15.514-0.102c-0.031 0-0.061 0-0.092 0zM509.86 496.978c-0.020 0-0.041 0-0.061 0l-15.483-0.102c-5.99-0.041-10.834-5.14-10.803-11.377l0.225-36.506c0.041-6.205 4.905-11.244 10.875-11.244 0.020 0 0.041 0 0.061 0l15.503 0.102c5.98 0.041 10.824 5.14 10.793 11.377l-0.225 36.506c-0.041 6.216-4.925 11.244-10.885 11.244z" />
<glyph unicode="&#xe974;" d="M498.739 448h7.025c1.147 0 2.079-0.973 2.079-2.171l-0.020-36.618c0-1.198-0.932-2.171-2.079-2.171h-7.025c-1.147 0-2.079 0.973-2.079 2.171l0.020 36.618c0 1.198 0.932 2.171 2.079 2.171z" />
<glyph unicode="&#xe975;" d="M505.754 404.48h-7.035c-2.56 0-4.639 2.12-4.639 4.731l0.020 36.618c0 2.611 2.079 4.731 4.628 4.731h7.035c2.56 0 4.639-2.12 4.639-4.731l-0.020-36.618c0-2.611-2.079-4.731-4.628-4.731zM499.22 445.471l-0.020-36.26 6.554 0.389-0.471 36.229-6.062-0.358zM498.801 445.44h-0.072c0.031 0 0.051 0 0.072 0z" />
<glyph unicode="&#xe976;" d="M133.12 683.52c-11.311 0-20.48-9.169-20.48-20.48s9.169-20.48 20.48-20.48v0c11.311 0 20.48 9.169 20.48 20.48s-9.169 20.48-20.48 20.48v0z" />
<glyph unicode="&#xe977;" d="M788.48 837.12c-5.655 0-10.24-4.585-10.24-10.24s4.585-10.24 10.24-10.24v0c5.655 0 10.24 4.585 10.24 10.24s-4.585 10.24-10.24 10.24v0z" />
<glyph unicode="&#xe978;" d="M512 826.88c-209.25 0-378.88-169.63-378.88-378.88s169.63-378.88 378.88-378.88v0c209.25 0 378.88 169.63 378.88 378.88s-169.63 378.88-378.88 378.88v0z" />
<glyph unicode="&#xe979;" d="M849.92 847.36c-22.622 0-40.96-18.338-40.96-40.96s18.338-40.96 40.96-40.96v0c22.622 0 40.96 18.338 40.96 40.96s-18.338 40.96-40.96 40.96v0z" />
<glyph unicode="&#xe97a;" d="M890.88 734.72c-11.311 0-20.48-9.169-20.48-20.48s9.169-20.48 20.48-20.48v0c11.311 0 20.48 9.169 20.48 20.48s-9.169 20.48-20.48 20.48v0z" />
<glyph unicode="&#xe97b;" d="M829.44 202.24c-11.311 0-20.48-9.169-20.48-20.48s9.169-20.48 20.48-20.48v0c11.311 0 20.48 9.169 20.48 20.48s-9.169 20.48-20.48 20.48v0zM153.6 355.84c-22.622 0-40.96-18.338-40.96-40.96s18.338-40.96 40.96-40.96v0c22.622 0 40.96 18.338 40.96 40.96s-18.338 40.96-40.96 40.96v0z" />
<glyph unicode="&#xe97c;" d="M256 89.6c-11.311 0-20.48-9.169-20.48-20.48s9.169-20.48 20.48-20.48v0c11.311 0 20.48 9.169 20.48 20.48s-9.169 20.48-20.48 20.48v0z" />
<glyph unicode="&#xe97d;" d="M189.44 437.76c-14.138 0-25.6-11.462-25.6-25.6s11.462-25.6 25.6-25.6v0c14.138 0 25.6 11.462 25.6 25.6s-11.462 25.6-25.6 25.6v0z" />
<glyph unicode="&#xe97e;" d="M215.040 284.16c-5.655 0-10.24-4.585-10.24-10.24s4.585-10.24 10.24-10.24v0c5.655 0 10.24 4.585 10.24 10.24s-4.585 10.24-10.24 10.24v0z" />
<glyph unicode="&#xe97f;" d="M819.2 622.080c-5.655 0-10.24-4.585-10.24-10.24s4.585-10.24 10.24-10.24v0c5.655 0 10.24 4.585 10.24 10.24s-4.585 10.24-10.24 10.24v0z" />
<glyph unicode="&#xe980;" d="M650.363 475.873c-4.905 0-9.81 0.328-14.623 0.973-0.451 12.79-7.578 23.306-19.364 28.303l-1.341 0.573h-0.256c-3.246 1.147-6.615 1.741-10.035 1.741-7.844 0-15.421-3.052-21.576-8.643-7.639 5.847-14.428 12.605-20.255 20.163 11.438 12.677 9.748 25.293 6.134 33.874-5.089 11.817-14.746 18.34-28.047 18.985-1.29 9.452-1.311 19.057-0.051 28.549 13.814 0.584 23.685 7.424 28.672 19.855 3.308 8.571 4.588 21.002-6.851 33.239 5.837 7.66 12.585 14.459 20.163 20.285 6.533-6.205 13.752-9.37 21.473-9.37 4.137 0 8.407 0.932 12.718 2.755 8.632 3.584 18.688 11.489 19.118 28.774 4.639 0.614 9.38 0.922 14.111 0.922 4.782 0 9.626-0.307 14.469-0.942 0.481-18.77 11.837-26.624 21.606-29.901 3.4-1.147 6.81-1.731 10.117-1.731 7.885 0 15.145 3.164 21.637 9.39 7.547-5.786 14.295-12.585 20.132-20.265-9.667-10.158-11.991-21.647-6.861-34.171 5.1-12.278 15.012-18.913 28.733-19.261 1.065-7.004 0.963-21.33-0.205-28.57-17.684-0.696-25.487-11.121-28.938-19.896-3.277-8.387-4.608-20.705 6.574-33.065-5.898-7.557-12.728-14.295-20.347-20.050-6.533 5.939-13.691 8.991-21.248 8.991-4.813 0-9.769-1.26-14.756-3.727-10.619-5.396-16.271-14.438-16.876-26.9-4.69-0.594-9.4-0.881-14.029-0.881zM650.373 608.799c-12.349 0-22.405-10.045-22.405-22.405s10.045-22.405 22.405-22.405 22.395 10.066 22.395 22.415-10.045 22.395-22.395 22.395z" />
<glyph unicode="&#xe981;" d="M650.342 689.664c2.591 0 5.202-0.102 7.864-0.307 2.284-14.705 11.244-25.242 25.938-30.167 4.147-1.393 8.315-2.099 12.411-2.099 5.734 0 13.599 1.423 21.688 7.281 3.871-3.338 7.485-6.984 10.844-10.936-8.038-11.121-9.585-23.951-4.229-37.007 5.356-12.882 15.421-20.879 28.774-23.050 0.236-4.741 0.184-10.732-0.113-15.462-13.742-2.335-23.931-10.588-29.133-23.818-4.854-12.411-3.4-24.73 4.055-35.553-3.441-3.942-7.158-7.619-11.162-10.998-6.615 4.639-13.732 6.984-21.248 6.984-5.929 0-11.96-1.505-18.063-4.536-8.090-4.106-17.408-11.991-20.060-26.685-2.519-0.184-5.038-0.266-7.537-0.266-2.734 0-5.468 0.113-8.161 0.317-2.437 12.718-10.772 23.204-23.020 28.385l-2.673 1.137h-0.522c-3.635 1.157-7.404 1.741-11.223 1.741-7.67 0-15.094-2.345-21.514-6.646-3.994 3.41-7.711 7.117-11.131 11.069 7.649 11.1 8.94 23.818 3.502 36.68-5.335 12.38-15.145 20.183-28.099 22.559-0.41 5.161-0.42 10.363-0.031 15.606 13.476 2.376 23.542 10.609 28.846 23.859 4.864 12.616 3.277 25.047-4.342 35.758 3.328 3.901 6.953 7.557 10.906 10.967 6.625-4.813 13.824-7.25 21.504-7.25 5.1 0 10.312 1.116 15.421 3.277 12.923 5.366 20.859 15.452 23.009 28.887 2.478 0.184 4.987 0.276 7.496 0.276zM650.373 556.831c16.302 0 29.563 13.261 29.563 29.563s-13.261 29.563-29.563 29.563c-16.302 0-29.563-13.261-29.563-29.563s13.251-29.563 29.563-29.563zM650.342 704c-6.226 0-12.411-0.502-18.514-1.495-1.69-0.297-2.867-1.761-2.796-3.461 0.584-12.657-4.27-20.972-14.715-25.313-3.43-1.454-6.738-2.181-9.923-2.181-6.656 0-12.81 3.174-18.627 9.544-0.676 0.717-1.587 1.096-2.499 1.096-0.676 0-1.352-0.215-1.925-0.655-10.158-7.363-19.057-16.333-26.348-26.491-0.952-1.321-0.809-3.236 0.44-4.413 9.052-8.387 11.479-17.439 7.506-27.74-4.127-10.312-11.96-15.401-23.962-15.401-0.42 0-0.85 0.010-1.28 0.020-0.051 0-0.092 0-0.143 0-1.628 0-3.031-1.229-3.246-2.877-1.987-12.216-1.987-24.719 0.072-37.161 0.297-1.618 1.69-2.796 3.308-2.796 0.348 0.010 0.707 0.010 1.055 0.010 11.766 0 19.456-4.864 23.675-14.653 4.413-10.445 2.13-19.722-6.84-28.324-1.178-1.106-1.403-3.021-0.44-4.342 7.363-10.158 16.261-18.985 26.348-26.266 0.143-0.143 0.369-0.225 0.584-0.297 0.389-0.174 0.829-0.256 1.27-0.256 0.881 0 1.802 0.328 2.488 0.911 0.297 0.225 0.512 0.44 0.666 0.584 5.171 5.376 11.684 8.212 18.248 8.212 2.877 0 5.755-0.543 8.54-1.669 0.072 0 0.225-0.072 0.297-0.072 9.564-4.045 15.155-12.8 15.012-23.47 0-1.987 0.737-4.485 4.413-5.079 5.755-0.86 11.551-1.29 17.347-1.29 5.54 0 11.069 0.389 16.579 1.147 0.44 0.143 0.952 0.215 1.403 0.297l0.44 0.072c1.546 0.297 2.724 1.761 2.724 3.389-0.225 11.407 3.973 19.057 12.954 23.624 3.994 1.987 7.844 2.98 11.571 2.98 6.502 0 12.636-3.031 18.524-9.165 0.655-0.655 1.526-0.993 2.396-0.993 0.686 0 1.362 0.205 1.946 0.625 10.23 7.281 19.128 16.118 26.491 26.122 0.952 1.321 0.809 3.236-0.44 4.413-8.827 8.458-11.182 17.51-7.209 27.668 4.076 10.373 12.052 15.391 24.187 15.391 0.348 0 0.696 0 1.044-0.010 0.051 0 0.102 0 0.154 0 1.475 0 2.734 1.004 3.154 2.355 2.355 7.721 2.499 31.345 0.143 38.267-0.43 1.352-1.741 2.284-3.154 2.284-0.051 0-0.102 0-0.164 0-0.594-0.020-1.178-0.041-1.761-0.041-11.459 0-19.128 4.884-23.255 14.828-4.342 10.598-1.915 19.866 7.506 28.549 1.249 1.178 1.475 3.092 0.512 4.413-7.363 10.301-16.261 19.282-26.419 26.563-0.594 0.43-1.27 0.645-1.946 0.645-0.922 0-1.833-0.399-2.468-1.167-5.673-6.318-11.93-9.523-18.719-9.523-2.54 0-5.161 0.451-7.844 1.352-11.848 3.973-17.295 12.513-16.701 26.266 0.072 1.761-1.178 3.236-2.867 3.461-6.287 1.014-12.564 1.516-18.79 1.516v0zM650.373 571.167c-8.428 0-15.227 6.799-15.227 15.227s6.799 15.227 15.227 15.227 15.227-6.789 15.227-15.227c0-8.428-6.799-15.227-15.227-15.227v0z" />
<glyph unicode="&#xe982;" d="M650.373 641.741c-30.515 0-55.347-24.842-55.347-55.347s24.842-55.347 55.347-55.347c30.515 0 55.347 24.842 55.347 55.347 0 11.448-3.502 22.098-9.482 30.935-2.284 3.369-4.925 6.482-7.885 9.277-3.564 3.369-7.567 6.267-11.919 8.602-3.922 2.099-8.12 3.748-12.534 4.864-4.321 1.096-8.858 1.669-13.527 1.669zM650.373 611.86c14.008 0 25.467-11.459 25.467-25.467s-11.459-25.467-25.467-25.467c-14.008 0-25.467 11.459-25.467 25.467s11.459 25.467 25.467 25.467z" />
<glyph unicode="&#xe983;" d="M375.706 190.003c-15.278 3.727-30.648 9.974-45.025 18.473 7.516 18.883 4.444 35.133-9.134 48.425-8.438 8.161-18.033 12.278-28.529 12.278-6.134 0-12.657-1.434-19.446-4.239-8.53 14.090-14.909 29.215-18.883 44.82 19.159 8.069 28.6 21.965 28.17 41.329-0.44 18.688-10.086 31.887-28.713 39.26 3.85 16.036 10.025 31.212 18.391 45.353 6.472-3.031 13.445-4.639 19.958-4.639 10.885 0 20.695 4.403 29.164 13.097 13.425 13.599 16.015 30.065 7.711 48.916 13.937 8.489 29.041 14.828 44.995 18.913 7.711-19.302 21.207-29.143 40.12-29.143 1.331 0 2.693 0.051 4.076 0.154 17.418 1.321 30.147 11.397 36.925 29.184 15.575-3.809 30.833-10.086 45.056-18.668-8.172-19.231-5.366-35.789 8.325-49.295 8.468-8.366 18.145-12.605 28.764-12.605 6.339 0 13.107 1.536 20.132 4.588 5.97-8.305 16.63-34.171 18.504-45.015-19.272-8.079-28.805-21.975-28.457-41.37 0.44-18.412 9.964-31.601 28.314-39.291-3.953-15.79-10.26-30.935-18.76-44.995-6.246 2.714-13.015 4.178-19.282 4.178-12.001 0-22.559-5.243-31.386-15.565-11.049-12.81-13.066-28.006-5.98-45.199-0.031-0.010-0.051-0.031-0.082-0.051-14.203-8.468-29.061-14.633-44.585-18.575-7.516 17.5-22.61 27.884-40.827 27.884h-1.792l-0.276-0.133c-16.66-0.778-30.874-11.397-37.448-28.068zM415.14 388.977c-20.849 0-37.816-16.968-37.816-37.816s16.968-37.816 37.816-37.816 37.816 16.968 37.816 37.816-16.968 37.816-37.816 37.816z" />
<glyph unicode="&#xe984;" d="M459.52 503.644c11.131-3.185 21.903-7.629 32.184-13.302-7.926-24.3 1.874-41.103 12.124-51.231 9.861-9.738 21.238-14.674 33.802-14.674 5.499 0 11.213 0.983 17.132 2.949 4.444-8.212 10.465-22.61 13.199-32.174-22.835-11.889-27.597-30.976-27.331-45.619 0.328-13.681 5.458-31.549 26.993-42.977-3.256-11.233-7.762-22.057-13.435-32.266-5.56 1.669-10.957 2.519-16.128 2.519-14.193 0-26.583-6.083-36.782-18.012-8.294-9.615-16.077-25.242-9.38-46.735-10.25-5.632-21.074-10.127-32.317-13.414-8.98 16.804-25.18 26.644-44.38 26.644l-3.83-0.072-0.328-0.164c-16.753-1.382-31.181-11.223-39.301-26.573-11.223 3.185-22.067 7.619-32.328 13.199 7.127 23.828-2.703 40.325-12.923 50.34-9.779 9.462-21.043 14.264-33.475 14.264-5.233 0-10.68-0.881-16.261-2.632-5.734 10.291-10.271 21.023-13.558 32.133 22.508 11.899 27.146 30.894 26.819 45.425-0.328 13.947-5.56 32.051-27.423 43.131 3.123 11.192 7.506 22.006 13.076 32.297 5.775-1.864 11.407-2.806 16.814-2.806 12.882 0 24.422 5.13 34.232 15.196 10.076 10.209 19.62 27.023 11.53 50.893 10.097 5.632 20.828 10.138 32.092 13.476 11.5-22.712 29.972-27.761 44.124-27.761 1.495 0 3.021 0.051 4.659 0.174 17.93 1.341 31.969 11.008 40.397 27.771zM415.14 306.176c24.801 0 44.984 20.183 44.984 44.984s-20.183 44.984-44.984 44.984-44.984-20.183-44.984-44.984c0-24.801 20.183-44.984 44.984-44.984zM453.96 519.721c-2.038 0-3.932-1.3-4.567-3.359-5.673-16.241-16.169-25.057-31.334-26.204-1.219-0.082-2.406-0.133-3.574-0.133-16.415 0-27.546 8.591-34.12 26.337-0.768 1.976-2.601 3.215-4.608 3.215-0.399 0-0.809-0.051-1.219-0.154-18.237-4.444-35.246-11.643-50.647-21.299-2.14-1.3-2.908-3.983-1.843-6.287 7.967-16.783 6.205-30.802-5.519-42.68-7.127-7.311-15.094-10.936-24.033-10.936-5.857 0-12.134 1.556-18.872 4.649-0.676 0.317-1.382 0.461-2.079 0.461-1.679 0-3.287-0.86-4.198-2.376-9.574-15.78-16.548-32.952-20.613-50.883-0.614-2.376 0.686-4.905 3.062-5.745 17.091-6.205 25.518-17.162 25.897-33.403 0.379-16.937-7.895-28.426-25.436-35.246-2.294-0.84-3.604-3.369-2.99-5.745 4.291-17.777 11.489-34.714 21.228-50.422 0.983-1.485 2.601-2.335 4.26-2.335 0.655 0 1.321 0.133 1.956 0.42 6.543 2.939 12.636 4.403 18.33 4.403 8.694 0 16.466-3.42 23.501-10.23 11.878-11.643 14.1-25.436 6.82-42.291-0.993-2.222-0.154-4.823 1.915-6.134 15.78-9.574 32.799-16.548 50.647-20.685 0.307-0.072 0.614-0.072 0.922-0.072 1.915 0 3.912 1.3 4.751 3.062 0.307 0.461 0.461 0.84 0.614 1.229 5.591 14.715 18.084 23.9 32.563 24.054 0.154 0.072 0.307 0.072 0.461 0.072 15.329 0 27.812-8.735 33.71-23.296 0.952-2.222 2.796-4.71 6.42-4.71 0.748 0 1.567 0.102 2.468 0.338 16.241 4.137 31.724 10.578 46.049 19.077 0.614 0.379 1.229 0.84 1.761 1.147l0.532 0.379c1.997 1.3 2.755 3.912 1.843 6.134-6.82 15.319-5.519 28.201 4.137 39.383 7.455 8.724 16.026 13.046 25.928 13.046 5.673 0 11.776-1.413 18.36-4.229 0.604-0.246 1.239-0.369 1.864-0.369 1.679 0 3.318 0.86 4.26 2.365 9.728 15.708 16.783 32.717 20.992 50.493 0.532 2.376-0.686 4.823-2.99 5.673-16.855 6.513-25.211 17.469-25.59 33.485-0.307 16.855 8.049 28.426 25.59 35.246 2.068 0.768 3.297 2.908 3.062 5.059-1.147 11.878-14.479 43.981-21.535 52.029-0.952 1.055-2.314 1.618-3.666 1.618-0.707 0-1.423-0.154-2.079-0.471-6.676-3.092-12.892-4.639-18.719-4.639-8.755 0-16.599 3.502-23.736 10.547-11.95 11.796-13.865 25.897-6.052 42.988 1.075 2.294 0.307 4.977-1.843 6.287-15.862 9.81-32.952 16.855-50.872 20.992-0.379 0.092-0.778 0.143-1.167 0.143v0zM415.14 320.512c-16.937 0-30.648 13.711-30.648 30.648s13.711 30.648 30.648 30.648 30.648-13.711 30.648-30.648c0-16.937-13.711-30.648-30.648-30.648v0z" />
<glyph unicode="&#xe985;" d="M415.14 448.020c-53.412 0-96.86-43.448-96.86-96.86s43.448-96.86 96.86-96.86 96.86 43.448 96.86 96.86c0 53.412-43.448 96.86-96.86 96.86zM415.14 288.891c-34.314 0-62.269 27.955-62.269 62.269s27.955 62.269 62.269 62.269 62.269-27.955 62.269-62.269c0-34.314-27.955-62.269-62.269-62.269z" />
<glyph unicode="&#xe986;" d="M420.68 251.904c-1.352 0-2.478 1.055-2.56 2.417-0.082 1.413 1.004 2.621 2.417 2.703 18.022 1.024 35.267 7.168 49.889 17.787 1.126 0.829 2.734 0.584 3.574-0.573 0.829-1.137 0.584-2.744-0.573-3.574-15.411-11.203-33.597-17.695-52.613-18.77-0.031 0.010-0.082 0.010-0.133 0.010zM406.415 252.129c-0.072 0-0.154 0-0.225 0.010-43.1 3.86-78.469 34.826-88.033 77.066-0.307 1.372 0.563 2.744 1.935 3.062 1.434 0.297 2.744-0.563 3.062-1.935 9.062-40.049 42.609-69.427 83.487-73.093 1.413-0.133 2.447-1.372 2.324-2.775-0.113-1.331-1.239-2.335-2.55-2.335zM485.53 282.122c-0.635 0-1.26 0.225-1.761 0.696-1.034 0.973-1.065 2.591-0.102 3.625 5.857 6.195 10.865 13.169 14.848 20.695 0.666 1.249 2.243 1.7 3.461 1.065 1.249-0.655 1.72-2.212 1.065-3.461-4.198-7.926-9.472-15.268-15.647-21.811-0.502-0.543-1.188-0.809-1.864-0.809zM415.14 286.331c-35.748 0-64.829 29.082-64.829 64.829s29.082 64.829 64.829 64.829 64.829-29.082 64.829-64.829-29.082-64.829-64.829-64.829zM415.14 410.87c-32.922 0-59.709-26.788-59.709-59.709s26.788-59.709 59.709-59.709 59.709 26.788 59.709 59.709-26.788 59.709-59.709 59.709zM507.74 320.154c-0.246 0-0.502 0.041-0.748 0.113-1.352 0.42-2.109 1.853-1.7 3.205 2.755 8.94 4.147 18.258 4.147 27.699 0 33.341-17.93 64.543-46.797 81.439-1.219 0.707-1.628 2.284-0.922 3.502 0.707 1.239 2.304 1.649 3.502 0.922 30.444-17.807 49.336-50.708 49.336-85.862 0-9.953-1.475-19.773-4.372-29.204-0.338-1.106-1.352-1.812-2.447-1.812zM318.28 348.6c-1.413 0-2.56 1.147-2.56 2.56 0 54.825 44.595 99.42 99.42 99.42 6.41 0 12.82-0.614 19.046-1.833 1.393-0.266 2.294-1.608 2.017-3s-1.567-2.253-3-2.017c-5.908 1.147-11.991 1.731-18.074 1.731-51.999 0-94.3-42.301-94.3-94.3 0.010-1.413-1.137-2.56-2.55-2.56zM454.595 437.064c-0.348 0-0.707 0.072-1.055 0.215-3.205 1.444-6.513 2.714-9.82 3.758-1.341 0.43-2.089 1.874-1.659 3.215s1.853 2.089 3.215 1.659c3.492-1.106 6.973-2.447 10.363-3.963 1.29-0.584 1.864-2.099 1.29-3.389-0.43-0.942-1.362-1.495-2.335-1.495z" />
<glyph unicode="&#xe987;" d="M511.457 345.395c-0.174 0-0.348 0.020-0.532 0.051l-34.335 7.229c-1.382 0.297-2.273 1.649-1.976 3.041 0.287 1.382 1.618 2.202 3.041 1.976l34.335-7.229c1.382-0.297 2.273-1.649 1.966-3.041-0.246-1.188-1.311-2.028-2.499-2.028zM474.194 369.009c-1.413 0-2.56 1.137-2.56 2.55 0 1.423 1.137 2.57 2.55 2.57l35.092 0.123c1.413 0 2.56-1.137 2.56-2.55 0-1.423-1.137-2.57-2.55-2.57l-35.092-0.123zM703.836 573.44c-0.246 0-0.512 0.041-0.768 0.123l-32 10.076c-1.352 0.42-2.099 1.864-1.669 3.205 0.42 1.341 1.812 2.089 3.205 1.669l32-10.076c1.352-0.42 2.099-1.864 1.669-3.205-0.338-1.096-1.341-1.792-2.437-1.792zM633.119 531.364c-0.461 0-0.932 0.123-1.341 0.379-1.208 0.737-1.577 2.324-0.84 3.523l19.845 32.164c0.737 1.208 2.345 1.597 3.523 0.84 1.208-0.737 1.577-2.324 0.84-3.523l-19.845-32.164c-0.492-0.788-1.321-1.219-2.181-1.219z" />
<glyph unicode="&#xe988;" d="M612.321 546.243c-0.778 0-1.546 0.358-2.058 1.034-0.84 1.137-0.604 2.744 0.532 3.594l27.361 20.316c1.147 0.829 2.744 0.594 3.594-0.532 0.84-1.137 0.604-2.744-0.532-3.594l-27.361-20.316c-0.471-0.348-1.004-0.502-1.536-0.502z" />
<glyph unicode="&#xe989;" d="M633.283 596.316c-1.198 0-2.263 0.84-2.509 2.048l-7.363 36.321c-0.276 1.393 0.625 2.744 1.997 3.021 1.372 0.287 2.734-0.625 3.021-1.997l7.363-36.321c0.276-1.393-0.625-2.744-1.997-3.021-0.174-0.031-0.348-0.051-0.512-0.051z" />
<glyph unicode="&#xe98a;" d="M647.229 605.184c-0.082 0-0.174 0-0.256 0.010-1.403 0.143-2.427 1.403-2.294 2.806l3.328 33.219c0.154 1.403 1.28 2.499 2.806 2.294 1.403-0.143 2.427-1.403 2.294-2.806l-3.328-33.219c-0.143-1.331-1.249-2.304-2.55-2.304z" />
<glyph unicode="&#xe98b;" d="M411.709 410.624c-0.184 0-0.369 0.020-0.563 0.061-1.382 0.307-2.253 1.679-1.935 3.062l7.731 34.222c0.307 1.382 1.638 2.253 3.062 1.935 1.382-0.307 2.253-1.679 1.935-3.062l-7.731-34.222c-0.266-1.188-1.331-1.997-2.499-1.997z" />
<glyph unicode="&#xe98c;" d="M377.559 399.892c-1.27 0-2.365 0.942-2.54 2.222l-4.618 34.775c-0.184 1.403 0.799 2.693 2.202 2.877 1.485 0.102 2.703-0.809 2.877-2.202l4.618-34.775c0.184-1.403-0.799-2.693-2.202-2.877-0.113-0.010-0.225-0.020-0.338-0.020z" />
<glyph unicode="&#xe98d;" d="M394.332 407.849c-0.010 0-0.010 0-0.020 0-1.413 0.010-2.55 1.157-2.54 2.58l0.246 35.082c0.010 1.423 1.249 2.519 2.58 2.54 1.413-0.010 2.55-1.157 2.54-2.58l-0.246-35.082c-0.010-1.413-1.157-2.54-2.56-2.54z" />
<glyph unicode="&#xe98e;" d="M464.896 386.427c-1.3 0-2.406 0.983-2.55 2.294-0.143 1.413 0.881 2.673 2.284 2.816l34.888 3.666c1.403 0.133 2.673-0.881 2.816-2.284 0.143-1.413-0.881-2.673-2.284-2.816l-34.888-3.666c-0.082-0.010-0.174-0.010-0.266-0.010z" />
<glyph unicode="&#xe98f;" d="M388.096 256.225c-0.42 0-0.85 0.102-1.239 0.317-1.239 0.676-1.679 2.243-1.004 3.482l16.978 30.689c0.686 1.239 2.253 1.69 3.482 1.004 1.239-0.676 1.679-2.243 1.004-3.482l-16.978-30.689c-0.471-0.84-1.341-1.321-2.243-1.321z" />
<glyph unicode="&#xe990;" d="M362.209 269.128c-0.799 0-1.587 0.379-2.089 1.075-0.819 1.157-0.543 2.755 0.614 3.574l28.652 20.255c1.157 0.819 2.755 0.543 3.574-0.614s0.543-2.755-0.614-3.574l-28.652-20.255c-0.451-0.307-0.973-0.461-1.485-0.461z" />
<glyph unicode="&#xe991;" d="M343.306 284.498c-0.942 0-1.853 0.522-2.304 1.434-0.625 1.26-0.102 2.796 1.167 3.43l31.457 15.534c1.27 0.625 2.796 0.102 3.43-1.167 0.625-1.26 0.102-2.796-1.167-3.43l-31.457-15.534c-0.348-0.184-0.748-0.266-1.126-0.266z" />
<glyph unicode="&#xe992;" d="M331.090 301.65c-1.065 0-2.068 0.676-2.427 1.751-0.451 1.341 0.276 2.785 1.618 3.236l33.28 11.1c1.352 0.451 2.785-0.276 3.236-1.618s-0.276-2.785-1.618-3.236l-33.28-11.1c-0.266-0.092-0.543-0.133-0.809-0.133z" />
<glyph unicode="&#xe993;" d="M650.383 528.486c-31.928 0-57.907 25.979-57.907 57.907 0 1.413 1.147 2.56 2.56 2.56s2.56-1.147 2.56-2.56c0-29.112 23.685-52.787 52.787-52.787 8.325 0 16.292 1.894 23.685 5.622 1.26 0.594 2.796 0.143 3.441-1.137 0.635-1.26 0.133-2.796-1.137-3.441-8.11-4.096-16.855-6.164-25.989-6.164zM688.271 543.529c-0.676 0-1.362 0.266-1.864 0.809-0.973 1.034-0.922 2.652 0.113 3.615 10.568 9.953 16.64 23.962 16.64 38.451 0 12.831-4.68 25.211-13.179 34.857-0.942 1.065-0.829 2.683 0.225 3.615 1.055 0.942 2.673 0.84 3.615-0.225 9.318-10.578 14.459-24.156 14.459-38.236 0-15.892-6.646-31.263-18.258-42.168-0.492-0.481-1.126-0.717-1.751-0.717zM650.383 558.367c-15.462 0-28.027 12.575-28.027 28.027s12.575 28.017 28.027 28.017c15.452 0 28.017-12.575 28.017-28.017 0-15.452-12.575-28.027-28.017-28.027zM650.383 609.3c-12.626 0-22.907-10.271-22.907-22.897s10.281-22.907 22.907-22.907 22.897 10.281 22.897 22.907-10.271 22.897-22.897 22.897zM603.259 612.854c-0.461 0-0.932 0.123-1.352 0.379-1.198 0.748-1.567 2.324-0.829 3.533 10.66 17.244 29.092 27.535 49.295 27.535 4.864 0 9.677-0.604 14.316-1.792 1.372-0.348 2.202-1.741 1.853-3.113-0.358-1.372-1.761-2.181-3.113-1.853-4.229 1.075-8.632 1.628-13.056 1.628-18.422 0-35.215-9.39-44.943-25.119-0.481-0.768-1.311-1.198-2.171-1.198zM684.298 627.538c-0.553 0-1.096 0.184-1.567 0.543-2.867 2.222-5.96 4.157-9.185 5.745-1.27 0.635-1.792 2.161-1.167 3.43 0.635 1.26 2.202 1.782 3.43 1.167 3.543-1.741 6.932-3.86 10.066-6.298 1.116-0.86 1.321-2.468 0.451-3.594-0.502-0.655-1.27-0.993-2.028-0.993z" />
<glyph unicode="&#xe994;" d="M133.12 683.52c-11.311 0-20.48-9.169-20.48-20.48s9.169-20.48 20.48-20.48v0c11.311 0 20.48 9.169 20.48 20.48s-9.169 20.48-20.48 20.48v0z" />
<glyph unicode="&#xe995;" d="M788.48 837.12c-5.655 0-10.24-4.585-10.24-10.24s4.585-10.24 10.24-10.24v0c5.655 0 10.24 4.585 10.24 10.24s-4.585 10.24-10.24 10.24v0z" />
<glyph unicode="&#xe996;" d="M512 826.88c-209.25 0-378.88-169.63-378.88-378.88s169.63-378.88 378.88-378.88v0c209.25 0 378.88 169.63 378.88 378.88s-169.63 378.88-378.88 378.88v0z" />
<glyph unicode="&#xe997;" d="M849.92 847.36c-22.622 0-40.96-18.338-40.96-40.96s18.338-40.96 40.96-40.96v0c22.622 0 40.96 18.338 40.96 40.96s-18.338 40.96-40.96 40.96v0z" />
<glyph unicode="&#xe998;" d="M890.88 734.72c-11.311 0-20.48-9.169-20.48-20.48s9.169-20.48 20.48-20.48v0c11.311 0 20.48 9.169 20.48 20.48s-9.169 20.48-20.48 20.48v0z" />
<glyph unicode="&#xe999;" d="M829.44 202.24c-11.311 0-20.48-9.169-20.48-20.48s9.169-20.48 20.48-20.48v0c11.311 0 20.48 9.169 20.48 20.48s-9.169 20.48-20.48 20.48v0zM153.6 355.84c-22.622 0-40.96-18.338-40.96-40.96s18.338-40.96 40.96-40.96v0c22.622 0 40.96 18.338 40.96 40.96s-18.338 40.96-40.96 40.96v0z" />
<glyph unicode="&#xe99a;" d="M256 89.6c-11.311 0-20.48-9.169-20.48-20.48s9.169-20.48 20.48-20.48v0c11.311 0 20.48 9.169 20.48 20.48s-9.169 20.48-20.48 20.48v0z" />
<glyph unicode="&#xe99b;" d="M189.44 437.76c-14.138 0-25.6-11.462-25.6-25.6s11.462-25.6 25.6-25.6v0c14.138 0 25.6 11.462 25.6 25.6s-11.462 25.6-25.6 25.6v0z" />
<glyph unicode="&#xe99c;" d="M215.040 284.16c-5.655 0-10.24-4.585-10.24-10.24s4.585-10.24 10.24-10.24v0c5.655 0 10.24 4.585 10.24 10.24s-4.585 10.24-10.24 10.24v0z" />
<glyph unicode="&#xe99d;" d="M819.2 622.080c-5.655 0-10.24-4.585-10.24-10.24s4.585-10.24 10.24-10.24v0c5.655 0 10.24 4.585 10.24 10.24s-4.585 10.24-10.24 10.24v0z" />
<glyph unicode="&#xe99e;" d="M302.172 250.368c-5.151 0-11.53 1.485-15.176 13.056-2.806 8.929-2.796 19.917-2.785 27.187l-0.563 282.358v39.137c0 17.347 13.527 31.457 30.157 31.457h180.695c16.988 0 30.812-14.899 30.812-33.219v-14.94c0-12.739 9.912-23.112 22.088-23.112h164.721c4.27 0 7.752-3.942 7.752-8.776v-241.306c0-3.42 0.133-7.66 0.266-12.431 0.512-17.439 1.341-45.67-4.465-59.412h-413.501z" />
<glyph unicode="&#xe99f;" d="M494.5 636.406c13.036 0 23.644-11.684 23.644-26.051v-14.93c0-16.701 13.128-30.28 29.256-30.28l164.618 0.020c0.113-0.051 0.686-0.543 0.686-1.628v-241.316c0-3.471 0.123-7.793 0.266-12.636 0.389-13.179 1.126-38.277-2.417-52.040h-408.371c-2.724 0-5.806 0-8.346 8.049-2.478 7.875-2.468 18.196-2.468 25.027v0.942l-0.553 281.395v39.158c0 13.394 10.312 24.289 22.989 24.289h180.695zM494.5 650.742h-180.695c-20.531 0-37.325-17.388-37.325-38.625v-39.158l0.553-281.436c0-14.572-0.553-48.323 25.139-48.323h417.833c10.803 16.845 7.035 60.396 7.035 79.002v241.316c0 8.806-6.676 15.944-14.92 15.944h-164.721c-8.243 0-14.92 7.137-14.92 15.944v14.93c0 22.221-17.091 40.407-37.98 40.407v0z" />
<glyph unicode="&#xe9a0;" d="M303.043 250.368c-0.625 0.072-1.536 1.075-2.191 2.202 12.431 3.512 13.517 25.989 13.517 52.695v222.29c0 3 2.345 5.437 5.243 5.437h425.738c2.888 0 5.243-2.437 5.243-5.437v-241.48c0-19.692-15.708-35.697-35.021-35.697h-412.529z" />
<glyph unicode="&#xe9a1;" d="M743.424 525.824v-239.749c0-15.739-12.493-28.539-27.853-28.539h-399.677c5.642 12.196 5.642 31.201 5.642 47.718v220.57h421.888zM745.349 540.16h-425.738c-6.861 0-12.411-5.642-12.411-12.605v-222.3c0-28.457-1.925-45.998-9.974-45.998-8.704 0-2.888-16.056 5.816-16.056h412.529c23.296 0 42.189 19.19 42.189 42.875v241.48c0 6.963-5.55 12.605-12.411 12.605v0z" />
<glyph unicode="&#xe9a2;" d="M424.96 601.6h-112.64c-2.826 0-5.12 2.294-5.12 5.12s2.294 5.12 5.12 5.12h112.64c2.826 0 5.12-2.294 5.12-5.12s-2.294-5.12-5.12-5.12z" />
<glyph unicode="&#xe9a3;" d="M496.64 601.6h-40.96c-2.826 0-5.12 2.294-5.12 5.12s2.294 5.12 5.12 5.12h40.96c2.826 0 5.12-2.294 5.12-5.12s-2.294-5.12-5.12-5.12z" />
<glyph unicode="&#xe9a4;" d="M527.36 417.28h-143.36c-2.826 0-5.12 2.294-5.12 5.12v61.44c0 2.826 2.294 5.12 5.12 5.12h143.36c2.826 0 5.12-2.294 5.12-5.12v-61.44c0-2.826-2.294-5.12-5.12-5.12zM389.12 427.52h133.12v51.2h-133.12v-51.2z" />
<glyph unicode="&#xe9a5;" d="M788.48 837.12c-5.655 0-10.24-4.585-10.24-10.24s4.585-10.24 10.24-10.24v0c5.655 0 10.24 4.585 10.24 10.24s-4.585 10.24-10.24 10.24v0z" />
<glyph unicode="&#xe9a6;" d="M512 826.88c-209.25 0-378.88-169.63-378.88-378.88s169.63-378.88 378.88-378.88v0c209.25 0 378.88 169.63 378.88 378.88s-169.63 378.88-378.88 378.88v0z" />
<glyph unicode="&#xe9a7;" d="M849.92 847.36c-22.622 0-40.96-18.338-40.96-40.96s18.338-40.96 40.96-40.96v0c22.622 0 40.96 18.338 40.96 40.96s-18.338 40.96-40.96 40.96v0z" />
<glyph unicode="&#xe9a8;" d="M890.88 734.72c-11.311 0-20.48-9.169-20.48-20.48s9.169-20.48 20.48-20.48v0c11.311 0 20.48 9.169 20.48 20.48s-9.169 20.48-20.48 20.48v0z" />
<glyph unicode="&#xe9a9;" d="M829.44 202.24c-11.311 0-20.48-9.169-20.48-20.48s9.169-20.48 20.48-20.48v0c11.311 0 20.48 9.169 20.48 20.48s-9.169 20.48-20.48 20.48v0zM153.6 355.84c-22.622 0-40.96-18.338-40.96-40.96s18.338-40.96 40.96-40.96v0c22.622 0 40.96 18.338 40.96 40.96s-18.338 40.96-40.96 40.96v0z" />
<glyph unicode="&#xe9aa;" d="M256 89.6c-11.311 0-20.48-9.169-20.48-20.48s9.169-20.48 20.48-20.48v0c11.311 0 20.48 9.169 20.48 20.48s-9.169 20.48-20.48 20.48v0z" />
<glyph unicode="&#xe9ab;" d="M189.44 458.24c-14.138 0-25.6-11.462-25.6-25.6s11.462-25.6 25.6-25.6v0c14.138 0 25.6 11.462 25.6 25.6s-11.462 25.6-25.6 25.6v0zM814.080 632.32c-8.483 0-15.36-6.877-15.36-15.36s6.877-15.36 15.36-15.36v0c8.483 0 15.36 6.877 15.36 15.36s-6.877 15.36-15.36 15.36v0z" />
<glyph unicode="&#xe9ac;" d="M381.911 209.408c-25.958 0-47.063 21.146-47.063 47.155v382.863c0 26.010 21.115 47.155 47.063 47.155h195.912l121.569-121.774v-308.244c0-26.010-21.115-47.155-47.063-47.155h-270.418z" />
<glyph unicode="&#xe9ad;" d="M574.853 679.424l117.361-117.576v-305.285c0-22.057-17.9-39.997-39.895-39.997h-270.408c-22.006 0-39.895 17.94-39.895 39.997v382.863c0 22.057 17.9 39.997 39.895 39.997h192.942zM580.803 693.76h-198.881c-29.839 0-54.241-24.453-54.241-54.333v-382.863c0-29.88 24.412-54.323 54.231-54.323h270.397c29.829 0 54.231 24.453 54.231 54.333v311.204h0.020c-48.906 48.998-76.851 76.984-125.757 125.983v0z" />
<glyph unicode="&#xe9ae;" d="M578.56 683.52v-66.386c0-28.252 22.671-51.374 50.391-51.374h67.369z" />
<glyph unicode="&#xe9af;" d="M696.32 560.64h-67.369c-30.607 0-55.511 25.344-55.511 56.494v66.386h10.24v-66.386c0-25.508 20.306-46.254 45.271-46.254h67.369v-10.24zM645.12 232.96h-256c-16.937 0-30.72 13.783-30.72 30.72v368.64c0 16.937 13.783 30.72 30.72 30.72h20.48c2.826 0 5.12-2.294 5.12-5.12s-2.294-5.12-5.12-5.12h-20.48c-11.295 0-20.48-9.185-20.48-20.48v-368.64c0-11.295 9.185-20.48 20.48-20.48h256c11.295 0 20.48 9.185 20.48 20.48v154.45c0 2.826 2.294 5.12 5.12 5.12s5.12-2.294 5.12-5.12v-154.45c0-16.937-13.783-30.72-30.72-30.72zM670.72 437.76c-2.826 0-5.12 2.294-5.12 5.12v40.96c0 2.826 2.294 5.12 5.12 5.12s5.12-2.294 5.12-5.12v-40.96c0-2.826-2.294-5.12-5.12-5.12zM670.72 501.76c-2.826 0-5.12 2.294-5.12 5.12v26.45c0 2.826 2.294 5.12 5.12 5.12s5.12-2.294 5.12-5.12v-26.45c0-2.826-2.294-5.12-5.12-5.12z" />
<glyph unicode="&#xe9b0;" d="M506.88 512h-102.4c-1.413 0-2.56 1.147-2.56 2.56s1.147 2.56 2.56 2.56h102.4c1.413 0 2.56-1.147 2.56-2.56s-1.147-2.56-2.56-2.56z" />
<glyph unicode="&#xe9b1;" d="M506.88 471.040h-102.4c-1.413 0-2.56 1.147-2.56 2.56s1.147 2.56 2.56 2.56h102.4c1.413 0 2.56-1.147 2.56-2.56s-1.147-2.56-2.56-2.56z" />
<glyph unicode="&#xe9b2;" d="M506.88 430.080h-102.4c-1.413 0-2.56 1.147-2.56 2.56s1.147 2.56 2.56 2.56h102.4c1.413 0 2.56-1.147 2.56-2.56s-1.147-2.56-2.56-2.56z" />
<glyph unicode="&#xe9b3;" d="M476.16 389.12h-71.68c-1.413 0-2.56 1.147-2.56 2.56s1.147 2.56 2.56 2.56h71.68c1.413 0 2.56-1.147 2.56-2.56s-1.147-2.56-2.56-2.56z" />
<glyph unicode="&#xe9b4;" d="M506.88 348.16h-102.4c-1.413 0-2.56 1.147-2.56 2.56s1.147 2.56 2.56 2.56h102.4c1.413 0 2.56-1.147 2.56-2.56s-1.147-2.56-2.56-2.56z" />
<glyph unicode="&#xe9b5;" d="M527.36 307.2h-122.88c-1.413 0-2.56 1.147-2.56 2.56s1.147 2.56 2.56 2.56h122.88c1.413 0 2.56-1.147 2.56-2.56s-1.147-2.56-2.56-2.56z" />
<glyph unicode="&#xe9b6;" d="M629.76 307.2h-81.92c-1.413 0-2.56 1.147-2.56 2.56s1.147 2.56 2.56 2.56h81.92c1.413 0 2.56-1.147 2.56-2.56s-1.147-2.56-2.56-2.56z" />
<glyph unicode="&#xe9b7;" d="M629.76 389.12h-133.12c-1.413 0-2.56 1.147-2.56 2.56s1.147 2.56 2.56 2.56h133.12c1.413 0 2.56-1.147 2.56-2.56s-1.147-2.56-2.56-2.56z" />
<glyph unicode="&#xe9b8;" d="M629.76 348.16h-40.96c-1.413 0-2.56 1.147-2.56 2.56s1.147 2.56 2.56 2.56h40.96c1.413 0 2.56-1.147 2.56-2.56s-1.147-2.56-2.56-2.56z" />
<glyph unicode="&#xe9b9;" d="M568.32 348.16h-40.96c-1.413 0-2.56 1.147-2.56 2.56s1.147 2.56 2.56 2.56h40.96c1.413 0 2.56-1.147 2.56-2.56s-1.147-2.56-2.56-2.56z" />
<glyph unicode="&#xe9ba;" d="M537.6 417.28v97.28h92.16v-92.16h-56.32z" />
<glyph unicode="&#xe9bb;" d="M540.16 417.28h-5.12v99.84h97.28v-97.28h-58.88v5.12h53.76v87.040h-87.040z" />
<glyph unicode="&#xe9bc;" d="M133.12 683.52c-11.311 0-20.48-9.169-20.48-20.48s9.169-20.48 20.48-20.48v0c11.311 0 20.48 9.169 20.48 20.48s-9.169 20.48-20.48 20.48v0z" />
<glyph unicode="&#xe9bd;" d="M788.48 837.12c-5.655 0-10.24-4.585-10.24-10.24s4.585-10.24 10.24-10.24v0c5.655 0 10.24 4.585 10.24 10.24s-4.585 10.24-10.24 10.24v0z" />
<glyph unicode="&#xe9be;" d="M512 826.88c-209.25 0-378.88-169.63-378.88-378.88s169.63-378.88 378.88-378.88v0c209.25 0 378.88 169.63 378.88 378.88s-169.63 378.88-378.88 378.88v0z" />
<glyph unicode="&#xe9bf;" d="M849.92 847.36c-22.622 0-40.96-18.338-40.96-40.96s18.338-40.96 40.96-40.96v0c22.622 0 40.96 18.338 40.96 40.96s-18.338 40.96-40.96 40.96v0z" />
<glyph unicode="&#xe9c0;" d="M890.88 734.72c-11.311 0-20.48-9.169-20.48-20.48s9.169-20.48 20.48-20.48v0c11.311 0 20.48 9.169 20.48 20.48s-9.169 20.48-20.48 20.48v0z" />
<glyph unicode="&#xe9c1;" d="M829.44 202.24c-11.311 0-20.48-9.169-20.48-20.48s9.169-20.48 20.48-20.48v0c11.311 0 20.48 9.169 20.48 20.48s-9.169 20.48-20.48 20.48v0zM153.6 355.84c-22.622 0-40.96-18.338-40.96-40.96s18.338-40.96 40.96-40.96v0c22.622 0 40.96 18.338 40.96 40.96s-18.338 40.96-40.96 40.96v0z" />
<glyph unicode="&#xe9c2;" d="M256 89.6c-11.311 0-20.48-9.169-20.48-20.48s9.169-20.48 20.48-20.48v0c11.311 0 20.48 9.169 20.48 20.48s-9.169 20.48-20.48 20.48v0z" />
<glyph unicode="&#xe9c3;" d="M189.44 437.76c-14.138 0-25.6-11.462-25.6-25.6s11.462-25.6 25.6-25.6v0c14.138 0 25.6 11.462 25.6 25.6s-11.462 25.6-25.6 25.6v0z" />
<glyph unicode="&#xe9c4;" d="M215.040 284.16c-5.655 0-10.24-4.585-10.24-10.24s4.585-10.24 10.24-10.24v0c5.655 0 10.24 4.585 10.24 10.24s-4.585 10.24-10.24 10.24v0z" />
<glyph unicode="&#xe9c5;" d="M819.2 622.080c-5.655 0-10.24-4.585-10.24-10.24s4.585-10.24 10.24-10.24v0c5.655 0 10.24 4.585 10.24 10.24s-4.585 10.24-10.24 10.24v0z" />
<glyph unicode="&#xe9c6;" d="M388.096 502.272h31.744v-128h-31.744z" />
<glyph unicode="&#xe9c7;" d="M384 376.32c-3.072 0-5.12 2.048-5.12 5.12v112.64c0 3.072 2.048 5.12 5.12 5.12s5.12-2.048 5.12-5.12v-112.64c0-3.072-2.048-5.12-5.12-5.12zM424.96 376.32c-3.072 0-5.12 2.048-5.12 5.12v112.64c0 3.072 2.048 5.12 5.12 5.12s5.12-2.048 5.12-5.12v-112.64c0-3.072-2.048-5.12-5.12-5.12z" />
<glyph unicode="&#xe9c8;" d="M462.847 524.816l17.705 38.068 151.344-70.39-17.705-38.068z" />
<glyph unicode="&#xe9c9;" d="M589.824 462.336c-1.024 0-1.024 0-2.048 0l-102.4 47.104c-3.072 1.024-4.096 4.096-2.048 7.168 1.024 3.072 4.096 4.096 7.168 2.048l102.4-47.104c3.072-1.024 4.096-4.096 2.048-7.168-1.024-1.024-3.072-2.048-5.12-2.048z" />
<glyph unicode="&#xe9ca;" d="M607.232 499.2c-1.024 0-1.024 0-2.048 0l-65.536 30.72c-3.072 1.024-4.096 4.096-2.048 7.168 1.024 3.072 4.096 4.096 7.168 2.048l65.536-30.72c3.072-1.024 4.096-4.096 2.048-7.168-1.024-1.024-3.072-2.048-5.12-2.048z" />
<glyph unicode="&#xe9cb;" d="M480.371 368.038l155.058 72.117 18.137-38.997-155.058-72.117z" />
<glyph unicode="&#xe9cc;" d="M537.6 343.552c-2.048 0-4.096 1.024-5.12 3.072-1.024 3.072 0 5.12 2.048 7.168l69.632 32.768c3.072 1.024 5.12 0 7.168-2.048 1.024-3.072 0-5.12-2.048-7.168l-69.632-32.768c-1.024 0-2.048-1.024-2.048-1.024z" />
<glyph unicode="&#xe9cd;" d="M487.424 366.080c-2.048 0-4.096 1.024-5.12 3.072-1.024 3.072 0 5.12 2.048 7.168l102.4 47.104c3.072 1.024 5.12 0 7.168-2.048s0-5.12-2.048-7.168l-102.4-47.104c0-1.024-1.024-1.024-2.048-1.024z" />
<glyph unicode="&#xe9ce;" d="M680.96 543.232c-55.423 0-100.352-44.929-100.352-100.352s44.929-100.352 100.352-100.352v0c55.423 0 100.352 44.929 100.352 100.352s-44.929 100.352-100.352 100.352v0z" />
<glyph unicode="&#xe9cf;" d="M680.96 536.064c51.2 0 93.184-41.984 93.184-93.184s-41.984-93.184-93.184-93.184-93.184 41.984-93.184 93.184 41.984 93.184 93.184 93.184zM680.96 550.4c-59.392 0-107.52-48.128-107.52-107.52s48.128-107.52 107.52-107.52 107.52 48.128 107.52 107.52-48.128 107.52-107.52 107.52v0z" />
<glyph unicode="&#xe9d0;" d="M680.96 376.32c-36.864 0-66.56 29.696-66.56 66.56s29.696 66.56 66.56 66.56c3.072 0 5.12-2.048 5.12-5.12s-2.048-5.12-5.12-5.12c-30.72 0-56.32-25.6-56.32-56.32s25.6-56.32 56.32-56.32 56.32 25.6 56.32 56.32c0 3.072 2.048 5.12 5.12 5.12s5.12-2.048 5.12-5.12c0-36.864-29.696-66.56-66.56-66.56zM736.256 465.408c-2.048 0-4.096 1.024-4.096 3.072-5.12 10.24-13.312 18.432-23.552 24.576-2.048 1.024-3.072 4.096-2.048 7.168 1.024 2.048 4.096 3.072 7.168 2.048 12.288-6.144 21.504-16.384 27.648-28.672 1.024-2.048 0-5.12-2.048-7.168-2.048-1.024-2.048-1.024-3.072-1.024z" />
<glyph unicode="&#xe9d1;" d="M404.48 676.352c-55.423 0-100.352-44.929-100.352-100.352s44.929-100.352 100.352-100.352v0c55.423 0 100.352 44.929 100.352 100.352s-44.929 100.352-100.352 100.352v0z" />
<glyph unicode="&#xe9d2;" d="M404.48 669.184c51.2 0 93.184-41.984 93.184-93.184s-41.984-93.184-93.184-93.184-93.184 41.984-93.184 93.184 41.984 93.184 93.184 93.184zM404.48 683.52c-59.392 0-107.52-48.128-107.52-107.52s48.128-107.52 107.52-107.52 107.52 48.128 107.52 107.52-48.128 107.52-107.52 107.52v0z" />
<glyph unicode="&#xe9d3;" d="M404.48 509.44c-36.864 0-66.56 29.696-66.56 66.56s29.696 66.56 66.56 66.56c3.072 0 5.12-2.048 5.12-5.12s-2.048-5.12-5.12-5.12c-30.72 0-56.32-25.6-56.32-56.32s25.6-56.32 56.32-56.32 56.32 25.6 56.32 56.32c0 3.072 2.048 5.12 5.12 5.12s5.12-2.048 5.12-5.12c0-36.864-29.696-66.56-66.56-66.56zM459.776 598.528c-2.048 0-4.096 1.024-4.096 3.072-5.12 10.24-13.312 18.432-23.552 24.576-2.048 1.024-3.072 4.096-2.048 7.168 1.024 2.048 4.096 3.072 7.168 2.048 12.288-6.144 21.504-16.384 27.648-28.672 1.024-2.048 0-5.12-2.048-7.168-2.048-1.024-2.048-1.024-3.072-1.024z" />
<glyph unicode="&#xe9d4;" d="M404.48 399.872c-55.423 0-100.352-44.929-100.352-100.352s44.929-100.352 100.352-100.352v0c55.423 0 100.352 44.929 100.352 100.352s-44.929 100.352-100.352 100.352v0z" />
<glyph unicode="&#xe9d5;" d="M404.48 392.704c51.2 0 93.184-41.984 93.184-93.184s-41.984-93.184-93.184-93.184-93.184 41.984-93.184 93.184 41.984 93.184 93.184 93.184zM404.48 407.040c-59.392 0-107.52-48.128-107.52-107.52s48.128-107.52 107.52-107.52 107.52 48.128 107.52 107.52-48.128 107.52-107.52 107.52v0z" />
<glyph unicode="&#xe9d6;" d="M404.48 232.96c-36.864 0-66.56 29.696-66.56 66.56s29.696 66.56 66.56 66.56c3.072 0 5.12-2.048 5.12-5.12s-2.048-5.12-5.12-5.12c-30.72 0-56.32-25.6-56.32-56.32s25.6-56.32 56.32-56.32 56.32 25.6 56.32 56.32c0 3.072 2.048 5.12 5.12 5.12s5.12-2.048 5.12-5.12c0-36.864-29.696-66.56-66.56-66.56zM459.776 322.048c-2.048 0-4.096 1.024-4.096 3.072-5.12 10.24-13.312 18.432-23.552 24.576-2.048 1.024-3.072 4.096-2.048 7.168s4.096 3.072 7.168 2.048c12.288-6.144 21.504-16.384 27.648-28.672 1.024-2.048 0-5.12-2.048-7.168-2.048-1.024-2.048-1.024-3.072-1.024z" />
<glyph unicode="&#xe9d7;" d="M133.12 683.52c-11.311 0-20.48-9.169-20.48-20.48s9.169-20.48 20.48-20.48v0c11.311 0 20.48 9.169 20.48 20.48s-9.169 20.48-20.48 20.48v0z" />
<glyph unicode="&#xe9d8;" d="M788.48 837.12c-5.655 0-10.24-4.585-10.24-10.24s4.585-10.24 10.24-10.24v0c5.655 0 10.24 4.585 10.24 10.24s-4.585 10.24-10.24 10.24v0z" />
<glyph unicode="&#xe9d9;" d="M512 826.88c-209.25 0-378.88-169.63-378.88-378.88s169.63-378.88 378.88-378.88v0c209.25 0 378.88 169.63 378.88 378.88s-169.63 378.88-378.88 378.88v0z" />
<glyph unicode="&#xe9da;" d="M849.92 847.36c-22.622 0-40.96-18.338-40.96-40.96s18.338-40.96 40.96-40.96v0c22.622 0 40.96 18.338 40.96 40.96s-18.338 40.96-40.96 40.96v0z" />
<glyph unicode="&#xe9db;" d="M890.88 734.72c-11.311 0-20.48-9.169-20.48-20.48s9.169-20.48 20.48-20.48v0c11.311 0 20.48 9.169 20.48 20.48s-9.169 20.48-20.48 20.48v0z" />
<glyph unicode="&#xe9dc;" d="M829.44 202.24c-11.311 0-20.48-9.169-20.48-20.48s9.169-20.48 20.48-20.48v0c11.311 0 20.48 9.169 20.48 20.48s-9.169 20.48-20.48 20.48v0zM153.6 355.84c-22.622 0-40.96-18.338-40.96-40.96s18.338-40.96 40.96-40.96v0c22.622 0 40.96 18.338 40.96 40.96s-18.338 40.96-40.96 40.96v0z" />
<glyph unicode="&#xe9dd;" d="M256 89.6c-11.311 0-20.48-9.169-20.48-20.48s9.169-20.48 20.48-20.48v0c11.311 0 20.48 9.169 20.48 20.48s-9.169 20.48-20.48 20.48v0z" />
<glyph unicode="&#xe9de;" d="M189.44 437.76c-14.138 0-25.6-11.462-25.6-25.6s11.462-25.6 25.6-25.6v0c14.138 0 25.6 11.462 25.6 25.6s-11.462 25.6-25.6 25.6v0z" />
<glyph unicode="&#xe9df;" d="M215.040 284.16c-5.655 0-10.24-4.585-10.24-10.24s4.585-10.24 10.24-10.24v0c5.655 0 10.24 4.585 10.24 10.24s-4.585 10.24-10.24 10.24v0z" />
<glyph unicode="&#xe9e0;" d="M819.2 622.080c-5.655 0-10.24-4.585-10.24-10.24s4.585-10.24 10.24-10.24v0c5.655 0 10.24 4.585 10.24 10.24s-4.585 10.24-10.24 10.24v0z" />
<glyph unicode="&#xe9e1;" d="M665.6 673.28c39.526 0 71.68-32.154 71.68-71.68v-307.2c0-39.526-32.154-71.68-71.68-71.68h-307.2c-39.526 0-71.68 32.154-71.68 71.68v307.2c0 39.526 32.154 71.68 71.68 71.68h307.2z" />
<glyph unicode="&#xe9e2;" d="M665.6 669.184c37.263 0 67.584-30.321 67.584-67.584v-307.2c0-37.263-30.321-67.584-67.584-67.584h-307.2c-37.263 0-67.584 30.321-67.584 67.584v307.2c0 37.263 30.321 67.584 67.584 67.584h307.2zM665.6 683.52h-307.2c-45.24 0-81.92-36.68-81.92-81.92v-307.2c0-45.24 36.68-81.92 81.92-81.92h307.2c45.24 0 81.92 36.68 81.92 81.92v307.2c0 45.24-36.68 81.92-81.92 81.92v0z" />
<glyph unicode="&#xe9e3;" d="M645.12 253.44h-266.24c-33.884 0-61.44 27.556-61.44 61.44v266.24c0 33.884 27.556 61.44 61.44 61.44h266.24c33.884 0 61.44-27.556 61.44-61.44v-266.24c0-33.884-27.556-61.44-61.44-61.44z" />
<glyph unicode="&#xe9e4;" d="M645.12 253.44h-266.24c-33.884 0-61.44 27.556-61.44 61.44v266.24c0 33.884 27.556 61.44 61.44 61.44h252.16c2.12 0 3.84-1.72 3.84-3.84s-1.72-3.84-3.84-3.84h-252.16c-29.645 0-53.76-24.115-53.76-53.76v-266.24c0-29.645 24.115-53.76 53.76-53.76h266.24c29.645 0 53.76 24.115 53.76 53.76v149.76c0 2.12 1.72 3.84 3.84 3.84s3.84-1.72 3.84-3.84v-149.76c0-33.884-27.556-61.44-61.44-61.44zM702.72 529.92c-2.12 0-3.84 1.72-3.84 3.84v13.087c0 2.12 1.72 3.84 3.84 3.84s3.84-1.72 3.84-3.84v-13.087c0-2.12-1.72-3.84-3.84-3.84z" />
<glyph unicode="&#xe9e5;" d="M702.72 478.72c-2.12 0-3.84 1.72-3.84 3.84v33.28c0 2.12 1.72 3.84 3.84 3.84s3.84-1.72 3.84-3.84v-33.28c0-2.12-1.72-3.84-3.84-3.84z" />
<glyph unicode="&#xe9e6;" d="M552.96 577.28c-48.778 0-88.32-39.542-88.32-88.32s39.542-88.32 88.32-88.32v0c48.778 0 88.32 39.542 88.32 88.32s-39.542 88.32-88.32 88.32v0z" />
<glyph unicode="&#xe9e7;" d="M552.96 558.080c-38.174 0-69.12-30.946-69.12-69.12s30.946-69.12 69.12-69.12v0c38.174 0 69.12 30.946 69.12 69.12s-30.946 69.12-69.12 69.12v0z" />
<glyph unicode="&#xe9e8;" d="M471.439 407.439c-7.997 7.997-20.961 7.997-28.959 0-5.765-5.765-47.985-47.985-53.76-53.76-7.997-7.997-7.997-20.961 0-28.959s20.961-7.997 28.959 0c5.775 5.775 47.995 47.995 53.76 53.76 7.997 7.997 7.997 20.961 0 28.959z" />
<glyph unicode="&#xe9e9;" d="M471.439 378.481c7.997 7.997 7.997 20.961 0 28.959s-20.961 7.997-28.959 0v0l28.959-28.959z" />
<glyph unicode="&#xe9ea;" d="M552.96 396.8c-50.811 0-92.16 41.349-92.16 92.16s41.349 92.16 92.16 92.16 92.16-41.349 92.16-92.16-41.349-92.16-92.16-92.16zM552.96 573.44c-46.582 0-84.48-37.898-84.48-84.48s37.898-84.48 84.48-84.48 84.48 37.898 84.48 84.48-37.898 84.48-84.48 84.48z" />
<glyph unicode="&#xe9eb;" d="M552.96 417.28c-39.526 0-71.68 32.154-71.68 71.68s32.154 71.68 71.68 71.68 71.68-32.154 71.68-71.68-32.154-71.68-71.68-71.68zM552.96 555.52c-36.7 0-66.56-29.86-66.56-66.56s29.86-66.56 66.56-66.56 66.56 29.86 66.56 66.56-29.86 66.56-66.56 66.56z" />
<glyph unicode="&#xe9ec;" d="M469.016 412.271l17.595 17.595 7.241-7.241-17.595-17.595z" />
<glyph unicode="&#xe9ed;" d="M403.2 314.88c-6.492 0-12.605 2.529-17.193 7.127-4.598 4.588-7.127 10.701-7.127 17.193s2.529 12.605 7.127 17.193l53.76 53.76c9.175 9.185 25.201 9.185 34.386 0v0 0 0c4.598-4.598 7.127-10.701 7.127-17.193s-2.529-12.605-7.127-17.193l-53.76-53.76c-4.588-4.598-10.701-7.127-17.193-7.127zM456.96 409.6c-4.444 0-8.622-1.731-11.766-4.874l-53.76-53.76c-3.144-3.144-4.874-7.322-4.874-11.766s1.731-8.622 4.874-11.766c6.287-6.287 17.244-6.287 23.532 0l53.76 53.76c3.144 3.144 4.874 7.322 4.874 11.766s-1.731 8.622-4.874 11.766v0c-3.144 3.144-7.322 4.874-11.766 4.874z" />
<glyph unicode="&#xe9ee;" d="M440.796 403.687l5.43 5.431 27.921-27.92-5.43-5.431z" />
<glyph unicode="&#xe9ef;" d="M414.72 345.6c-0.543 0-1.055 0.348-1.219 0.891l-7.68 24.32c-0.215 0.676 0.164 1.393 0.84 1.608 0.696 0.195 1.393-0.164 1.608-0.84l7.68-24.32c0.215-0.676-0.164-1.393-0.84-1.608-0.133-0.031-0.266-0.051-0.389-0.051zM409.6 335.36c-0.543 0-1.055 0.348-1.219 0.891l-9.656 30.577c-0.215 0.676 0.164 1.393 0.84 1.608 0.696 0.205 1.403-0.164 1.608-0.84l9.656-30.577c0.215-0.676-0.164-1.393-0.84-1.608-0.133-0.031-0.266-0.051-0.389-0.051zM406.487 318.751c-0.543 0-1.055 0.348-1.219 0.891l-12.882 40.806c-0.215 0.676 0.164 1.393 0.84 1.608 0.707 0.215 1.393-0.174 1.608-0.84l12.882-40.806c0.215-0.676-0.164-1.393-0.84-1.608-0.133-0.031-0.266-0.051-0.389-0.051zM398.551 317.44c-0.543 0-1.055 0.348-1.219 0.891l-11.418 36.157c-0.215 0.676 0.164 1.393 0.84 1.608 0.717 0.195 1.403-0.174 1.608-0.84l11.418-36.157c0.215-0.676-0.164-1.393-0.84-1.608-0.133-0.031-0.266-0.051-0.389-0.051z" />
<glyph unicode="&#xe9f0;" d="M788.48 837.12c-5.655 0-10.24-4.585-10.24-10.24s4.585-10.24 10.24-10.24v0c5.655 0 10.24 4.585 10.24 10.24s-4.585 10.24-10.24 10.24v0z" />
<glyph unicode="&#xe9f1;" d="M512 826.88c-209.25 0-378.88-169.63-378.88-378.88s169.63-378.88 378.88-378.88v0c209.25 0 378.88 169.63 378.88 378.88s-169.63 378.88-378.88 378.88v0z" />
<glyph unicode="&#xe9f2;" d="M849.92 847.36c-22.622 0-40.96-18.338-40.96-40.96s18.338-40.96 40.96-40.96v0c22.622 0 40.96 18.338 40.96 40.96s-18.338 40.96-40.96 40.96v0z" />
<glyph unicode="&#xe9f3;" d="M890.88 734.72c-11.311 0-20.48-9.169-20.48-20.48s9.169-20.48 20.48-20.48v0c11.311 0 20.48 9.169 20.48 20.48s-9.169 20.48-20.48 20.48v0z" />
<glyph unicode="&#xe9f4;" d="M829.44 202.24c-11.311 0-20.48-9.169-20.48-20.48s9.169-20.48 20.48-20.48v0c11.311 0 20.48 9.169 20.48 20.48s-9.169 20.48-20.48 20.48v0zM153.6 355.84c-22.622 0-40.96-18.338-40.96-40.96s18.338-40.96 40.96-40.96v0c22.622 0 40.96 18.338 40.96 40.96s-18.338 40.96-40.96 40.96v0z" />
<glyph unicode="&#xe9f5;" d="M256 89.6c-11.311 0-20.48-9.169-20.48-20.48s9.169-20.48 20.48-20.48v0c11.311 0 20.48 9.169 20.48 20.48s-9.169 20.48-20.48 20.48v0z" />
<glyph unicode="&#xe9f6;" d="M189.44 458.24c-14.138 0-25.6-11.462-25.6-25.6s11.462-25.6 25.6-25.6v0c14.138 0 25.6 11.462 25.6 25.6s-11.462 25.6-25.6 25.6v0zM814.080 632.32c-8.483 0-15.36-6.877-15.36-15.36s6.877-15.36 15.36-15.36v0c8.483 0 15.36 6.877 15.36 15.36s-6.877 15.36-15.36 15.36v0z" />
<glyph unicode="&#xe9f7;" d="M512 693.33c-135.492 0-245.33-109.838-245.33-245.33s109.838-245.33 245.33-245.33v0c135.492 0 245.33 109.838 245.33 245.33s-109.838 245.33-245.33 245.33v0z" />
<glyph unicode="&#xe9f8;" d="M512 689.664c133.253 0 241.664-108.411 241.664-241.664s-108.411-241.664-241.664-241.664-241.664 108.411-241.664 241.664 108.411 241.664 241.664 241.664zM512 704c-141.384 0-256-114.616-256-256s114.616-256 256-256 256 114.616 256 256-114.616 256-256 256v0z" />
<glyph unicode="&#xe9f9;" d="M511.99 648.96c-110.993 0-200.97-89.977-200.97-200.97s89.977-200.97 200.97-200.97v0c110.993 0 200.97 89.977 200.97 200.97s-89.977 200.97-200.97 200.97v0z" />
<glyph unicode="&#xe9fa;" d="M511.99 618.24c105.81 0 192.317-81.818 200.192-185.61 0.389 5.089 0.778 10.179 0.778 15.36 0 110.991-89.979 200.97-200.97 200.97s-200.97-89.979-200.97-200.97c0-5.181 0.389-10.271 0.778-15.36 7.875 103.793 94.392 185.61 200.192 185.61z" />
<glyph unicode="&#xe9fb;" d="M511.99 645.12c108.698 0 197.13-88.422 197.13-197.11 0-108.698-88.433-197.13-197.13-197.13-108.687 0-197.11 88.433-197.11 197.13 0 108.687 88.422 197.11 197.11 197.11zM511.99 652.8c-112.916 0-204.79-91.873-204.79-204.79 0-112.927 91.873-204.81 204.79-204.81 112.927 0 204.81 91.884 204.81 204.81s-91.884 204.79-204.81 204.79v0z" />
<glyph unicode="&#xe9fc;" d="M430.080 465.92c-9.882 0-17.92-8.038-17.92-17.92s8.038-17.92 17.92-17.92h64v-64c0-9.882 8.038-17.92 17.92-17.92s17.92 8.038 17.92 17.92v64h64c9.882 0 17.92 8.038 17.92 17.92s-8.038 17.92-17.92 17.92h-64v64c0 9.882-8.038 17.92-17.92 17.92s-17.92-8.038-17.92-17.92v-64h-64z" />
<glyph unicode="&#xe9fd;" d="M512 542.72c7.055 0 12.8-5.745 12.8-12.8v-69.12h69.12c7.055 0 12.8-5.745 12.8-12.8s-5.745-12.8-12.8-12.8h-69.12v-69.12c0-7.055-5.745-12.8-12.8-12.8s-12.8 5.745-12.8 12.8v69.12h-69.12c-7.055 0-12.8 5.745-12.8 12.8s5.745 12.8 12.8 12.8h69.12v69.12c0 7.055 5.745 12.8 12.8 12.8zM512 550.4c-11.305 0-20.48-9.165-20.48-20.48 0-3.912 0-30.638 0-61.44-30.802 0-57.528 0-61.44 0-11.305 0-20.48-9.165-20.48-20.48s9.175-20.48 20.48-20.48c3.912 0 30.638 0 61.44 0 0-30.802 0-57.528 0-61.44 0-11.315 9.175-20.48 20.48-20.48s20.48 9.165 20.48 20.48c0 3.912 0 30.638 0 61.44 30.802 0 57.528 0 61.44 0 11.305 0 20.48 9.165 20.48 20.48s-9.175 20.48-20.48 20.48c-3.912 0-30.638 0-61.44 0 0 30.802 0 57.528 0 61.44 0 11.315-9.175 20.48-20.48 20.48v0z" />
<glyph unicode="&#xe9fe;" d="M133.12 683.52c-11.311 0-20.48-9.169-20.48-20.48s9.169-20.48 20.48-20.48v0c11.311 0 20.48 9.169 20.48 20.48s-9.169 20.48-20.48 20.48v0z" />
<glyph unicode="&#xe9ff;" d="M788.48 837.12c-5.655 0-10.24-4.585-10.24-10.24s4.585-10.24 10.24-10.24v0c5.655 0 10.24 4.585 10.24 10.24s-4.585 10.24-10.24 10.24v0z" />
<glyph unicode="&#xea00;" d="M512 826.88c-209.25 0-378.88-169.63-378.88-378.88s169.63-378.88 378.88-378.88v0c209.25 0 378.88 169.63 378.88 378.88s-169.63 378.88-378.88 378.88v0z" />
<glyph unicode="&#xea01;" d="M849.92 847.36c-22.622 0-40.96-18.338-40.96-40.96s18.338-40.96 40.96-40.96v0c22.622 0 40.96 18.338 40.96 40.96s-18.338 40.96-40.96 40.96v0z" />
<glyph unicode="&#xea02;" d="M890.88 734.72c-11.311 0-20.48-9.169-20.48-20.48s9.169-20.48 20.48-20.48v0c11.311 0 20.48 9.169 20.48 20.48s-9.169 20.48-20.48 20.48v0z" />
<glyph unicode="&#xea03;" d="M829.44 202.24c-11.311 0-20.48-9.169-20.48-20.48s9.169-20.48 20.48-20.48v0c11.311 0 20.48 9.169 20.48 20.48s-9.169 20.48-20.48 20.48v0zM153.6 355.84c-22.622 0-40.96-18.338-40.96-40.96s18.338-40.96 40.96-40.96v0c22.622 0 40.96 18.338 40.96 40.96s-18.338 40.96-40.96 40.96v0z" />
<glyph unicode="&#xea04;" d="M256 89.6c-11.311 0-20.48-9.169-20.48-20.48s9.169-20.48 20.48-20.48v0c11.311 0 20.48 9.169 20.48 20.48s-9.169 20.48-20.48 20.48v0z" />
<glyph unicode="&#xea05;" d="M189.44 437.76c-14.138 0-25.6-11.462-25.6-25.6s11.462-25.6 25.6-25.6v0c14.138 0 25.6 11.462 25.6 25.6s-11.462 25.6-25.6 25.6v0z" />
<glyph unicode="&#xea06;" d="M215.040 284.16c-5.655 0-10.24-4.585-10.24-10.24s4.585-10.24 10.24-10.24v0c5.655 0 10.24 4.585 10.24 10.24s-4.585 10.24-10.24 10.24v0z" />
<glyph unicode="&#xea07;" d="M819.2 622.080c-5.655 0-10.24-4.585-10.24-10.24s4.585-10.24 10.24-10.24v0c5.655 0 10.24 4.585 10.24 10.24s-4.585 10.24-10.24 10.24v0z" />
<glyph unicode="&#xea08;" d="M665.6 673.28c39.526 0 71.68-32.154 71.68-71.68v-307.2c0-39.526-32.154-71.68-71.68-71.68h-307.2c-39.526 0-71.68 32.154-71.68 71.68v307.2c0 39.526 32.154 71.68 71.68 71.68h307.2z" />
<glyph unicode="&#xea09;" d="M665.6 669.184c37.263 0 67.584-30.321 67.584-67.584v-307.2c0-37.263-30.321-67.584-67.584-67.584h-307.2c-37.263 0-67.584 30.321-67.584 67.584v307.2c0 37.263 30.321 67.584 67.584 67.584h307.2zM665.6 683.52h-307.2c-45.24 0-81.92-36.68-81.92-81.92v-307.2c0-45.24 36.68-81.92 81.92-81.92h307.2c45.24 0 81.92 36.68 81.92 81.92v307.2c0 45.24-36.68 81.92-81.92 81.92v0z" />
<glyph unicode="&#xea0a;" d="M645.12 253.44h-266.24c-33.884 0-61.44 27.556-61.44 61.44v266.24c0 33.884 27.556 61.44 61.44 61.44h266.24c33.884 0 61.44-27.556 61.44-61.44v-266.24c0-33.884-27.556-61.44-61.44-61.44z" />
<glyph unicode="&#xea0b;" d="M645.12 253.44h-266.24c-33.884 0-61.44 27.556-61.44 61.44v266.24c0 33.884 27.556 61.44 61.44 61.44h252.16c2.12 0 3.84-1.72 3.84-3.84s-1.72-3.84-3.84-3.84h-252.16c-29.645 0-53.76-24.115-53.76-53.76v-266.24c0-29.645 24.115-53.76 53.76-53.76h266.24c29.645 0 53.76 24.115 53.76 53.76v149.76c0 2.12 1.72 3.84 3.84 3.84s3.84-1.72 3.84-3.84v-149.76c0-33.884-27.556-61.44-61.44-61.44zM702.72 529.92c-2.12 0-3.84 1.72-3.84 3.84v13.087c0 2.12 1.72 3.84 3.84 3.84s3.84-1.72 3.84-3.84v-13.087c0-2.12-1.72-3.84-3.84-3.84z" />
<glyph unicode="&#xea0c;" d="M702.72 478.72c-2.12 0-3.84 1.72-3.84 3.84v33.28c0 2.12 1.72 3.84 3.84 3.84s3.84-1.72 3.84-3.84v-33.28c0-2.12-1.72-3.84-3.84-3.84z" />
<glyph unicode="&#xea0d;" d="M590.715 556.79c-4.106 0-7.68-1.219-10.24-3.768l-147.21-147.333c-4.741-4.762-14.725-31.15-22.006-50.401-3.297-8.714-6.113-16.118-7.752-19.794-0.573-1.28-0.307-2.673 0.676-3.666l1.587-1.587c1.249-1.26 3.123-1.628 4.792-0.881 4.27 1.925 12.165 4.925 21.33 8.397 19.528 7.414 43.581 16.538 48.148 21.105l147.22 147.354c7.608 7.619 3.308 24.33-9.585 37.243-8.571 8.561-18.821 13.332-26.962 13.332z" />
<glyph unicode="&#xea0e;" d="M433.265 405.688c-4.741-4.762-14.725-31.15-22.006-50.401-3.297-8.714-6.113-16.118-7.752-19.794-0.573-1.28-0.307-2.673 0.676-3.666l1.587-1.587c1.249-1.26 3.123-1.628 4.792-0.881 4.27 1.925 12.165 4.925 21.33 8.397 19.528 7.414 43.581 16.538 48.148 21.105l0.031 0.031-46.807 46.797z" />
<glyph unicode="&#xea0f;" d="M411.453 355.809c-0.061-0.174-0.133-0.358-0.205-0.532-3.297-8.714-6.113-16.118-7.752-19.794-0.573-1.28-0.307-2.673 0.676-3.666l1.587-1.587c1.249-1.26 3.123-1.628 4.792-0.881 3.994 1.802 11.213 4.557 19.62 7.741l-18.719 18.719z" />
<glyph unicode="&#xea10;" d="M547.984 519.831l20.332 20.332 46.718-46.717-20.332-20.332z" />
<glyph unicode="&#xea11;" d="M614.769 493.711l12.483 12.493c7.608 7.619 3.308 24.33-9.585 37.243-8.561 8.571-18.811 13.343-26.952 13.343-4.106 0-7.68-1.219-10.24-3.768l-12.503-12.513 46.797-46.797z" />
<glyph unicode="&#xea12;" d="M590.746 552.96v0c7.393 0 16.671-4.69 24.207-12.227 12.37-12.39 14.94-26.45 9.585-31.816l-147.231-147.354c-3.983-3.983-29.624-13.711-46.592-20.152l-0.768-0.287c-8.96-3.4-16.691-6.339-21.473-8.172l-1.321 1.321c1.772 4.035 4.649 11.633 7.69 19.661 6.349 16.783 16.978 44.872 21.135 49.039l147.21 147.323c1.772 1.772 4.311 2.662 7.557 2.662zM590.746 560.64c-5.13 0-9.667-1.587-12.984-4.905l-147.21-147.333c-4.925-4.936-12.943-25.457-22.886-51.753-3.267-8.622-6.042-15.954-7.67-19.589-1.219-2.714-0.645-5.827 1.454-7.936l1.597-1.597c1.567-1.577 3.635-2.406 5.745-2.406 1.126 0 2.273 0.246 3.348 0.727 4.178 1.894 12.114 4.895 21.299 8.387 25.856 9.81 44.544 17.132 49.306 21.903l147.231 147.343c9.267 9.277 5.059 28.017-9.585 42.67-9.39 9.4-20.47 14.49-29.645 14.49v0z" />
<glyph unicode="&#xea13;" d="M431.447 403.921l3.62 3.62 46.805-46.804-3.62-3.62z" />
<glyph unicode="&#xea14;" d="M408.692 354.944l3.62 3.62 20.477-20.477-3.62-3.62z" />
<glyph unicode="&#xea15;" d="M546.174 518.021l3.62 3.62 46.718-46.717-3.62-3.62z" />
<glyph unicode="&#xea16;" d="M566.501 538.348l3.62 3.62 46.718-46.717-3.62-3.62z" />
<glyph unicode="&#xea17;" d="M559.258 508.938l-2.355 1.004 11.52 26.88 2.355-1.004zM568.218 501.258l-2.355 1.004 11.52 26.88 2.355-1.004zM577.178 493.578l-2.355 1.004 11.52 26.88 2.355-1.004zM585.155 483.615l-2.345 1.004 12.493 29.164 2.355-1.004zM593.725 475.023l-2.355 1.004 12.892 30.075 2.355-1.004z" />
<glyph unicode="&#xea18;" d="M133.12 683.52c-11.311 0-20.48-9.169-20.48-20.48s9.169-20.48 20.48-20.48v0c11.311 0 20.48 9.169 20.48 20.48s-9.169 20.48-20.48 20.48v0z" />
<glyph unicode="&#xea19;" d="M788.48 837.12c-5.655 0-10.24-4.585-10.24-10.24s4.585-10.24 10.24-10.24v0c5.655 0 10.24 4.585 10.24 10.24s-4.585 10.24-10.24 10.24v0z" />
<glyph unicode="&#xea1a;" d="M512 826.88c-209.25 0-378.88-169.63-378.88-378.88s169.63-378.88 378.88-378.88v0c209.25 0 378.88 169.63 378.88 378.88s-169.63 378.88-378.88 378.88v0z" />
<glyph unicode="&#xea1b;" d="M849.92 847.36c-22.622 0-40.96-18.338-40.96-40.96s18.338-40.96 40.96-40.96v0c22.622 0 40.96 18.338 40.96 40.96s-18.338 40.96-40.96 40.96v0z" />
<glyph unicode="&#xea1c;" d="M890.88 734.72c-11.311 0-20.48-9.169-20.48-20.48s9.169-20.48 20.48-20.48v0c11.311 0 20.48 9.169 20.48 20.48s-9.169 20.48-20.48 20.48v0z" />
<glyph unicode="&#xea1d;" d="M829.44 202.24c-11.311 0-20.48-9.169-20.48-20.48s9.169-20.48 20.48-20.48v0c11.311 0 20.48 9.169 20.48 20.48s-9.169 20.48-20.48 20.48v0zM153.6 355.84c-22.622 0-40.96-18.338-40.96-40.96s18.338-40.96 40.96-40.96v0c22.622 0 40.96 18.338 40.96 40.96s-18.338 40.96-40.96 40.96v0z" />
<glyph unicode="&#xea1e;" d="M256 89.6c-11.311 0-20.48-9.169-20.48-20.48s9.169-20.48 20.48-20.48v0c11.311 0 20.48 9.169 20.48 20.48s-9.169 20.48-20.48 20.48v0z" />
<glyph unicode="&#xea1f;" d="M189.44 437.76c-14.138 0-25.6-11.462-25.6-25.6s11.462-25.6 25.6-25.6v0c14.138 0 25.6 11.462 25.6 25.6s-11.462 25.6-25.6 25.6v0z" />
<glyph unicode="&#xea20;" d="M215.040 284.16c-5.655 0-10.24-4.585-10.24-10.24s4.585-10.24 10.24-10.24v0c5.655 0 10.24 4.585 10.24 10.24s-4.585 10.24-10.24 10.24v0z" />
<glyph unicode="&#xea21;" d="M819.2 622.080c-5.655 0-10.24-4.585-10.24-10.24s4.585-10.24 10.24-10.24v0c5.655 0 10.24 4.585 10.24 10.24s-4.585 10.24-10.24 10.24v0z" />
<glyph unicode="&#xea22;" d="M512 693.76c-135.73 0-245.76-110.030-245.76-245.76s110.030-245.76 245.76-245.76v0c135.73 0 245.76 110.030 245.76 245.76s-110.030 245.76-245.76 245.76v0z" />
<glyph unicode="&#xea23;" d="M512 689.664c133.12 0 241.664-108.544 241.664-241.664s-108.544-241.664-241.664-241.664-241.664 108.544-241.664 241.664 108.544 241.664 241.664 241.664zM512 704c-141.312 0-256-114.688-256-256s114.688-256 256-256 256 114.688 256 256-114.688 256-256 256v0z" />
<glyph unicode="&#xea24;" d="M512 648.704c-110.846 0-200.704-89.858-200.704-200.704s89.858-200.704 200.704-200.704v0c110.846 0 200.704 89.858 200.704 200.704s-89.858 200.704-200.704 200.704v0z" />
<glyph unicode="&#xea25;" d="M512 617.984c105.472 0 192.512-81.92 199.68-185.344 0 5.12 1.024 10.24 1.024 15.36 0 110.592-90.112 200.704-200.704 200.704s-200.704-90.112-200.704-200.704c0-5.12 0-10.24 1.024-15.36 7.168 103.424 94.208 185.344 199.68 185.344z" />
<glyph unicode="&#xea26;" d="M512 644.608c108.544 0 197.632-88.064 197.632-196.608s-88.064-197.632-197.632-197.632c-108.544 0-196.608 88.064-196.608 197.632 0 108.544 88.064 196.608 196.608 196.608zM512 652.8c-112.64 0-204.8-92.16-204.8-204.8s92.16-204.8 204.8-204.8c112.64 0 204.8 92.16 204.8 204.8s-92.16 204.8-204.8 204.8v0z" />
<glyph unicode="&#xea27;" d="M535.552 448l60.416 60.416c3.072 3.072 5.12 7.168 5.12 11.264s-2.048 8.192-5.12 11.264c-6.144 6.144-17.408 6.144-23.552 0l-60.416-59.392-60.416 60.416c-6.144 6.144-17.408 6.144-23.552 0s-6.144-17.408 0-23.552l60.416-60.416-60.416-60.416c-6.144-6.144-6.144-17.408 0-23.552s17.408-6.144 23.552 0l60.416 60.416 60.416-60.416c3.072-3.072 7.168-5.12 11.264-5.12s8.192 2.048 11.264 5.12c6.144 6.144 6.144 17.408 0 23.552l-59.392 60.416z" />
<glyph unicode="&#xea28;" d="M440.32 355.84c-5.12 0-10.24 2.048-14.336 6.144-8.192 8.192-8.192 20.48 0 28.672l57.344 57.344-57.344 57.344c-4.096 4.096-6.144 9.216-6.144 14.336s2.048 10.24 6.144 14.336c8.192 8.192 21.504 8.192 28.672 0l57.344-57.344 57.344 57.344c8.192 8.192 20.48 8.192 28.672 0 4.096-4.096 6.144-9.216 6.144-14.336s-2.048-10.24-6.144-14.336l-57.344-57.344 57.344-57.344c8.192-8.192 8.192-20.48 0-28.672s-21.504-8.192-28.672 0l-57.344 57.344-57.344-57.344c-4.096-4.096-9.216-6.144-14.336-6.144zM440.32 532.992c-3.072 0-6.144-1.024-9.216-4.096-2.048-2.048-4.096-5.12-4.096-9.216s1.024-6.144 4.096-9.216l62.464-62.464-62.464-62.464c-5.12-5.12-5.12-13.312 0-18.432s13.312-5.12 18.432 0l62.464 62.464 62.464-62.464c5.12-5.12 13.312-5.12 18.432 0s5.12 13.312 0 18.432l-62.464 62.464 62.464 62.464c2.048 2.048 4.096 6.144 4.096 9.216s-1.024 6.144-4.096 9.216c-5.12 5.12-13.312 5.12-18.432 0l-62.464-62.464-62.464 62.464c-3.072 2.048-6.144 4.096-9.216 4.096z" />
<glyph unicode="&#xea29;" d="M133.12 683.52c-11.311 0-20.48-9.169-20.48-20.48s9.169-20.48 20.48-20.48v0c11.311 0 20.48 9.169 20.48 20.48s-9.169 20.48-20.48 20.48v0z" />
<glyph unicode="&#xea2a;" d="M788.48 837.12c-5.655 0-10.24-4.585-10.24-10.24s4.585-10.24 10.24-10.24v0c5.655 0 10.24 4.585 10.24 10.24s-4.585 10.24-10.24 10.24v0z" />
<glyph unicode="&#xea2b;" d="M512 826.88c-209.25 0-378.88-169.63-378.88-378.88s169.63-378.88 378.88-378.88v0c209.25 0 378.88 169.63 378.88 378.88s-169.63 378.88-378.88 378.88v0z" />
<glyph unicode="&#xea2c;" d="M849.92 847.36c-22.622 0-40.96-18.338-40.96-40.96s18.338-40.96 40.96-40.96v0c22.622 0 40.96 18.338 40.96 40.96s-18.338 40.96-40.96 40.96v0z" />
<glyph unicode="&#xea2d;" d="M890.88 734.72c-11.311 0-20.48-9.169-20.48-20.48s9.169-20.48 20.48-20.48v0c11.311 0 20.48 9.169 20.48 20.48s-9.169 20.48-20.48 20.48v0z" />
<glyph unicode="&#xea2e;" d="M829.44 202.24c-11.311 0-20.48-9.169-20.48-20.48s9.169-20.48 20.48-20.48v0c11.311 0 20.48 9.169 20.48 20.48s-9.169 20.48-20.48 20.48v0zM153.6 355.84c-22.622 0-40.96-18.338-40.96-40.96s18.338-40.96 40.96-40.96v0c22.622 0 40.96 18.338 40.96 40.96s-18.338 40.96-40.96 40.96v0z" />
<glyph unicode="&#xea2f;" d="M256 89.6c-11.311 0-20.48-9.169-20.48-20.48s9.169-20.48 20.48-20.48v0c11.311 0 20.48 9.169 20.48 20.48s-9.169 20.48-20.48 20.48v0z" />
<glyph unicode="&#xea30;" d="M189.44 437.76c-14.138 0-25.6-11.462-25.6-25.6s11.462-25.6 25.6-25.6v0c14.138 0 25.6 11.462 25.6 25.6s-11.462 25.6-25.6 25.6v0z" />
<glyph unicode="&#xea31;" d="M215.040 284.16c-5.655 0-10.24-4.585-10.24-10.24s4.585-10.24 10.24-10.24v0c5.655 0 10.24 4.585 10.24 10.24s-4.585 10.24-10.24 10.24v0z" />
<glyph unicode="&#xea32;" d="M819.2 622.080c-5.655 0-10.24-4.585-10.24-10.24s4.585-10.24 10.24-10.24v0c5.655 0 10.24 4.585 10.24 10.24s-4.585 10.24-10.24 10.24v0z" />
<glyph unicode="&#xea33;" d="M660.675 224.256h-281.795c-16.087 0-29.184 13.087-29.184 29.184s13.087 29.184 29.184 29.184h281.917l-3.686-4.239c-6.083-7.004-9.431-15.852-9.431-24.945 0-9.083 3.318-17.951 9.349-24.955l3.645-4.229z" />
<glyph unicode="&#xea34;" d="M349.696 278.743v363.817c0 16.097 13.087 29.184 29.184 29.184h266.24c16.087 0 29.184-13.087 29.184-29.184v-350.72h-295.424c-9.165 0-17.787-3.267-24.955-9.441l-4.229-3.656z" />
<glyph unicode="&#xea35;" d="M440.32 671.744h-61.44c-16.087 0-29.184-13.087-29.184-29.184v-363.817l4.229 3.645c7.158 6.185 15.79 9.441 24.955 9.441h61.44v379.914z" />
<glyph unicode="&#xea36;" d="M681.974 279.747c2.406 0.379 4.106 2.56 4.106 4.987v357.827c0 22.62-18.34 40.96-40.96 40.96h-266.24c-22.62 0-40.96-18.34-40.96-40.96v-389.12c0-5.652 1.147-11.039 3.215-15.944s5.069-9.318 8.776-13.015c1.853-1.853 3.881-3.533 6.062-4.997 4.362-2.949 9.308-5.069 14.643-6.164 2.673-0.553 5.437-0.84 8.264-0.84 0.891 0 299.366 0 300.032 0 3.953 0 7.158 3.205 7.168 7.158v0c0 0 0 0 0 0.010s0 0 0 0c0 0.031-0.020 0.061-0.020 0.092-0.051 3.84-2.806 6.943-6.543 7.895-11.51 2.929-20.060 13.384-20.060 25.805 0 13.281 9.779 24.33 22.518 26.307zM378.88 669.184h266.24c14.705 0 26.624-11.919 26.624-26.624v-348.16c0 0-272.077 0-292.864 0-10.22 0-19.446-3.881-26.624-10.066v358.226c0 14.705 11.919 26.624 26.624 26.624zM378.88 226.816c-14.684 0-26.624 11.94-26.624 26.624s11.94 26.624 26.624 26.624h276.306c-6.216-7.148-10.066-16.394-10.066-26.624 0-10.199 3.799-19.456 9.974-26.624h-276.214z" />
<glyph unicode="&#xea37;" d="M436.48 396.8c-2.12 0-3.84 1.72-3.84 3.84v104.96c0 2.12 1.72 3.84 3.84 3.84s3.84-1.72 3.84-3.84v-104.96c0-2.12-1.72-3.84-3.84-3.84zM436.48 345.6c-2.12 0-3.84 1.72-3.84 3.84v12.8c0 2.12 1.72 3.84 3.84 3.84s3.84-1.72 3.84-3.84v-12.8c0-2.12-1.72-3.84-3.84-3.84zM436.48 314.88c-2.12 0-3.84 1.72-3.84 3.84v12.8c0 2.12 1.72 3.84 3.84 3.84s3.84-1.72 3.84-3.84v-12.8c0-2.12-1.72-3.84-3.84-3.84zM651.52 253.44h-258.56c-2.12 0-3.84 1.72-3.84 3.84s1.72 3.84 3.84 3.84h258.56c2.12 0 3.84-1.72 3.84-3.84s-1.72-3.84-3.84-3.84zM651.52 235.52h-156.16c-2.12 0-3.84 1.72-3.84 3.84s1.72 3.84 3.84 3.84h156.16c2.12 0 3.84-1.72 3.84-3.84s-1.72-3.84-3.84-3.84zM477.44 235.52h-12.8c-2.12 0-3.84 1.72-3.84 3.84s1.72 3.84 3.84 3.84h12.8c2.12 0 3.84-1.72 3.84-3.84s-1.72-3.84-3.84-3.84z" />
<glyph unicode="&#xea38;" d="M391.68 691.2h107.52v-209.92l-53.76 24.32-53.76-24.32z" />
<glyph unicode="&#xea39;" d="M497.92 478.72c-0.522 0-1.055 0.102-1.536 0.328l-50.944 22.354-50.944-22.364c-1.178-0.522-2.56-0.41-3.635 0.297-1.096 0.717-1.741 1.935-1.741 3.226v207.36c0 2.12 1.72 3.84 3.84 3.84h104.96c2.12 0 3.84-1.72 3.84-3.84v-207.36c0-1.29-0.645-2.509-1.741-3.215-0.625-0.41-1.372-0.625-2.099-0.625zM445.44 509.44c0.532 0 1.055-0.113 1.536-0.328l47.104-20.675v197.642h-97.28v-197.642l47.104 20.675c0.481 0.215 1.004 0.328 1.536 0.328z" />
</font>
</defs>
</svg>
